<?xml version="1.0" standalone="no"?>
<!DOCTYPE svg PUBLIC "-//W3C//DTD SVG 20010904//EN"
 "http://www.w3.org/TR/2001/REC-SVG-20010904/DTD/svg10.dtd">
<svg version="1.0" xmlns="http://www.w3.org/2000/svg"
 width="512.000000pt" height="512.000000pt" viewBox="0 0 512.000000 512.000000"
 preserveAspectRatio="xMidYMid meet">

<g transform="translate(0.000000,512.000000) scale(0.100000,-0.100000)"
fill="#000000" stroke="none">
<path d="M3090 4953 c-390 -211 -444 -242 -565 -332 -119 -88 -311 -274 -398
-384 -247 -313 -423 -725 -463 -1084 -3 -35 -11 -63 -16 -63 -5 0 -155 43
-333 95 -179 52 -329 95 -333 95 -12 0 -134 -296 -191 -463 -128 -377 -191
-761 -178 -1087 20 -485 220 -921 574 -1249 259 -240 570 -394 928 -457 120
-22 602 -31 758 -15 446 46 826 233 1137 558 127 132 216 259 300 428 142 285
199 550 187 865 -17 419 -150 763 -409 1060 -41 47 -139 143 -217 214 -213
194 -315 325 -411 530 -93 197 -129 353 -136 591 -5 154 -2 203 34 515 22 190
39 346 39 347 -1 1 -139 -73 -307 -164z m-65 -625 c0 -279 13 -378 76 -576
106 -329 231 -516 558 -831 292 -281 385 -411 465 -651 56 -166 70 -267 70
-485 0 -157 -4 -207 -22 -287 -86 -388 -295 -705 -613 -928 -32 -23 -59 -39
-59 -35 0 3 9 23 20 45 11 21 32 78 47 127 25 81 27 102 27 263 1 153 -2 185
-22 253 -54 188 -112 279 -298 464 -130 130 -147 150 -189 236 -35 71 -50 116
-63 190 -16 97 -16 100 14 375 17 152 31 278 30 279 -3 4 -483 -261 -537 -297
-81 -55 -243 -216 -297 -296 -82 -122 -161 -305 -178 -412 -4 -23 -12 -42 -18
-42 -6 0 -78 20 -161 44 l-150 44 -23 -52 c-206 -451 -248 -866 -117 -1161 13
-30 21 -55 18 -55 -21 0 -156 112 -253 209 -175 176 -289 358 -363 582 -59
177 -72 267 -71 494 1 235 23 402 84 639 37 146 131 432 147 447 5 4 183 -44
398 -106 214 -63 391 -113 393 -111 1 2 7 97 12 212 10 240 31 366 91 548 151
460 458 828 894 1074 50 28 90 51 90 51 0 1 0 -113 0 -251z m-280 -2358 c46
-180 133 -317 303 -481 189 -182 240 -279 249 -480 4 -79 1 -127 -12 -183 -50
-227 -225 -418 -451 -492 -86 -28 -96 -29 -279 -29 -216 0 -253 7 -390 78 -93
48 -210 159 -263 249 -109 184 -120 415 -35 716 14 50 31 92 37 92 6 0 101
-27 211 -59 110 -33 201 -59 202 -58 1 1 6 81 12 177 6 96 18 202 26 235 43
160 164 346 287 444 l63 49 12 -96 c6 -54 19 -126 28 -162z"/>
</g>
</svg>
