<svg xmlns="http://www.w3.org/2000/svg" version="1.1" xmlns:xlink="http://www.w3.org/1999/xlink" xmlns:svgjs="http://svgjs.dev/svgjs" width="2000" height="510" viewBox="0 0 2000 510"><g transform="matrix(1,0,0,1,-1.2121212121212466,0.658867416486629)"><svg viewBox="0 0 396 101" data-background-color="#ffffff" preserveAspectRatio="xMidYMid meet" height="510" width="2000" xmlns="http://www.w3.org/2000/svg" xmlns:xlink="http://www.w3.org/1999/xlink"><g id="tight-bounds" transform="matrix(1,0,0,1,0.2400000000000091,-0.13048158640225438)"><svg viewBox="0 0 395.52 101.26096317280454" height="101.26096317280454" width="395.52"><g><svg viewBox="0 0 395.52 101.26096317280454" height="101.26096317280454" width="395.52"><g><svg viewBox="0 0 395.52 101.26096317280454" height="101.26096317280454" width="395.52"><g id="textblocktransform"><svg viewBox="0 0 395.52 101.26096317280454" height="101.26096317280454" width="395.52" id="textblock"><g><svg viewBox="0 0 395.52 101.26096317280454" height="101.26096317280454" width="395.52"><g transform="matrix(1,0,0,1,0,0)"><svg width="395.52" viewBox="2.49 -39.84 206.82 52.95" height="101.26096317280454" data-palette-color="#ffccea"><path d="M20.7-17.04L20.73-17.41Q20.48-17.97 20.06-18.55 19.63-19.14 19.07-19.63 18.51-20.12 17.85-20.42 17.19-20.73 16.46-20.73L16.46-20.73Q15.45-20.73 14.58-19.9 13.7-19.07 13.04-17.69 12.38-16.31 12-14.54 11.62-12.77 11.62-10.86L11.62-10.86Q11.62-9.69 11.83-8.65 12.04-7.62 12.48-6.84 12.92-6.05 13.61-5.59 14.31-5.13 15.28-5.13L15.28-5.13Q16.75-5.13 17.97-6.04 19.19-6.96 20.04-8.42L20.04-8.42Q20.07-8.94 20.12-9.64 20.17-10.35 20.24-11.36 20.31-12.38 20.42-13.76 20.53-15.14 20.7-17.04L20.7-17.04ZM31.32-25.71L28.81-2.66Q28.56-0.24 27.71 1.86 26.86 3.96 25.55 5.7 24.24 7.45 22.57 8.83 20.9 10.21 19.03 11.16 17.16 12.11 15.19 12.61 13.21 13.11 11.28 13.11L11.28 13.11Q10.25 13.11 9.18 13.04 8.11 12.96 7.08 12.76 6.05 12.55 5.13 12.17 4.2 11.79 3.47 11.21L3.47 11.21 3.47 11.18Q3.47 11.06 3.65 10.33 3.83 9.59 4.09 8.61 4.35 7.62 4.63 6.57 4.91 5.52 5.1 4.76L5.1 4.76Q5.2 4.42 5.3 4.3 5.4 4.17 5.52 4.17L5.52 4.17Q5.66 4.17 5.69 4.2L5.69 4.2Q6.4 4.66 7.02 4.97 7.64 5.27 8.34 5.46 9.03 5.64 9.86 5.71 10.69 5.79 11.79 5.79L11.79 5.79Q13.5 5.79 14.82 5.13 16.14 4.47 17.09 3.42 18.04 2.37 18.62 1.11 19.19-0.15 19.41-1.37L19.41-1.37Q17.65-0.2 15.84 0.54 14.04 1.27 12.21 1.27L12.21 1.27Q9.69 1.27 7.86 0.26 6.03-0.76 4.83-2.47 3.64-4.17 3.06-6.38 2.49-8.59 2.49-11.01L2.49-11.01Q2.49-12.92 2.84-14.86 3.2-16.8 3.89-18.6 4.59-20.41 5.62-21.98 6.64-23.56 7.98-24.73 9.33-25.9 10.96-26.57 12.6-27.25 14.53-27.25L14.53-27.25Q16.63-27.25 18.42-26.32 20.21-25.39 21.68-24.02L21.68-24.02Q21.73-24.46 21.75-24.72 21.78-24.98 21.88-25.12 21.97-25.27 22.2-25.34 22.44-25.42 22.88-25.51L22.88-25.51Q23.14-25.56 23.85-25.72 24.56-25.88 25.54-26.1 26.51-26.32 27.69-26.56 28.86-26.81 30.05-27.08L30.05-27.08Q30.35-27.15 30.59-27.15L30.59-27.15Q31.35-27.15 31.35-26.17L31.35-26.17Q31.35-26.05 31.35-25.94 31.35-25.83 31.32-25.71L31.32-25.71ZM61.98-27.66L59.47-4.91Q59.45-4.81 59.45-4.72 59.45-4.64 59.45-4.57L59.45-4.57Q59.45-3.96 59.64-3.55 59.84-3.15 60.07-2.89 60.3-2.64 60.5-2.48 60.69-2.32 60.69-2.2L60.69-2.2Q60.69-1.86 59.96-1.56L59.96-1.56 53.39 1.25Q53.37 1.27 53.22 1.27L53.22 1.27Q53.02 1.27 52.83 0.93 52.63 0.59 52.45 0.06 52.27-0.46 52.11-1.06 51.95-1.66 51.83-2.17L51.83-2.17Q50.29-0.39 48.51 0.44 46.73 1.27 44.97 1.27L44.97 1.27Q42.92 1.27 40.96 0.37 39.01-0.54 37.5-2.21 35.98-3.88 35.07-6.25 34.15-8.62 34.15-11.57L34.15-11.57Q34.15-15.06 35.17-17.94 36.18-20.83 37.91-22.9 39.65-24.98 41.95-26.11 44.26-27.25 46.85-27.25L46.85-27.25Q48.68-27.25 50.31-26.5 51.95-25.76 53.42-24.58L53.42-24.58Q53.56-25.32 53.59-25.76 53.61-26.2 53.7-26.44 53.78-26.68 54.03-26.77 54.27-26.86 54.83-26.9L54.83-26.9Q56.59-27.15 58.33-27.36 60.08-27.56 61.98-27.66L61.98-27.66ZM51.14-6.88L52.17-14.11Q52.41-15.5 52.5-16.74 52.59-17.97 52.63-18.99L52.63-18.99Q52.24-19.29 51.79-19.6 51.34-19.92 50.82-20.2 50.29-20.48 49.72-20.65 49.14-20.83 48.51-20.83L48.51-20.83Q47.19-20.83 46.3-19.97 45.41-19.12 44.86-17.87 44.31-16.63 44.08-15.23 43.85-13.84 43.85-12.77L43.85-12.77Q43.85-8.91 44.86-7.12 45.87-5.32 47.68-5.32L47.68-5.32Q48.41-5.32 49.31-5.74 50.22-6.15 51.14-6.88L51.14-6.88ZM106.54-0.78L100.53 0.88Q100.26 0.95 99.82 1.11 99.38 1.27 98.97 1.27L98.97 1.27Q98.63 1.27 98.37 1.1 98.12 0.93 98.12 0.51L98.12 0.51 98.12 0.37Q98.29-1.42 98.41-2.53 98.53-3.64 98.6-4.32 98.68-5 98.73-5.36 98.77-5.71 98.82-6.02 98.87-6.32 98.91-6.69 98.95-7.06 99.02-7.73 99.09-8.4 99.2-9.51 99.31-10.62 99.48-12.43L99.48-12.43Q99.58-13.4 99.69-14.37 99.8-15.33 99.8-16.14L99.8-16.14Q99.8-17.16 99.69-18.01 99.58-18.85 99.3-19.45 99.02-20.04 98.53-20.39 98.04-20.73 97.29-20.73L97.29-20.73Q96.82-20.73 96.08-20.53 95.33-20.34 94.58-19.84 93.82-19.34 93.21-18.52 92.6-17.7 92.43-16.46L92.43-16.46 92.43-16.36Q92.13-13.57 91.9-11.54 91.67-9.5 91.5-8.03 91.33-6.57 91.22-5.59 91.11-4.61 91.04-3.94 90.96-3.27 90.93-2.83 90.89-2.39 90.89-2L90.89-2Q90.89-1.81 90.9-1.67 90.91-1.54 90.91-1.44L90.91-1.44Q90.91-1.25 90.73-1.11 90.55-0.98 89.91-0.78L89.91-0.78 84.17 0.88Q83.91 0.95 83.47 1.11 83.03 1.27 82.61 1.27L82.61 1.27Q82.27 1.27 82.01 1.1 81.76 0.93 81.76 0.51L81.76 0.51 81.76 0.37Q81.93-1.42 82.04-2.53 82.15-3.64 82.23-4.32 82.32-5 82.37-5.36 82.42-5.71 82.45-6.02 82.49-6.32 82.54-6.69 82.59-7.06 82.65-7.73 82.71-8.4 82.82-9.51 82.93-10.62 83.1-12.43L83.1-12.43Q83.2-13.4 83.31-14.37 83.42-15.33 83.42-16.14L83.42-16.14Q83.42-17.16 83.32-18.01 83.22-18.85 82.97-19.45 82.71-20.04 82.27-20.39 81.83-20.73 81.15-20.73L81.15-20.73Q80.66-20.73 79.82-20.48 78.97-20.24 78.13-19.68 77.29-19.12 76.64-18.2 76-17.29 75.9-15.94L75.9-15.94Q75.7-14.14 75.58-12.98 75.46-11.82 75.39-11.07 75.31-10.33 75.28-9.88 75.24-9.42 75.21-9.03L75.21-9.03Q75.19-8.94 75.14-8.48 75.09-8.03 75.03-7.41 74.97-6.79 74.91-6.07 74.85-5.35 74.8-4.72 74.75-4.1 74.71-3.65 74.68-3.2 74.68-3.1L74.68-3.1 74.68-2.66Q74.68-2.42 74.65-2.25 74.63-2.08 74.51-1.93 74.38-1.78 74.15-1.66 73.92-1.54 73.51-1.39L73.51-1.39 67.11 0.88Q66.84 0.98 66.4 1.12 65.96 1.27 65.55 1.27L65.55 1.27Q65.2 1.27 64.95 1.1 64.69 0.93 64.69 0.51L64.69 0.51 66.89-24.39Q66.96-25.2 67.07-25.5 67.18-25.81 67.62-25.9L67.62-25.9Q69.84-26.34 72.16-26.79 74.48-27.25 76.7-27.95L76.7-27.95Q76.9-27.95 76.94-27.89 76.97-27.83 76.97-27.71L76.97-27.71 76.66-24.15Q77.56-24.61 78.68-25.16 79.8-25.71 81.04-26.17 82.27-26.64 83.55-26.94 84.83-27.25 86.05-27.25L86.05-27.25Q87.74-27.25 89.17-26.48 90.6-25.71 91.52-23.93L91.52-23.93Q92.62-24.63 93.85-25.24 95.09-25.85 96.37-26.29 97.65-26.73 98.95-26.98 100.24-27.22 101.46-27.22L101.46-27.22Q103-27.22 104.37-26.78 105.73-26.34 106.75-25.34 107.76-24.34 108.34-22.74 108.93-21.14 108.93-18.85L108.93-18.85Q108.93-18.26 108.91-17.64 108.88-17.02 108.81-16.36L108.81-16.36 107.69-5.91Q107.56-4.88 107.54-4.02 107.51-3.15 107.51-2L107.51-2Q107.51-1.81 107.53-1.67 107.54-1.54 107.54-1.44L107.54-1.44Q107.54-1.22 107.36-1.1 107.17-0.98 106.54-0.78L106.54-0.78ZM127.17-27.25L127.17-27.25Q129.48-27.25 131.38-26.38 133.27-25.51 134.62-24.13 135.98-22.75 136.71-21.04 137.44-19.34 137.44-17.63L137.44-17.63Q137.44-16.11 136.52-14.59 135.59-13.06 133.92-11.84 132.24-10.62 129.9-9.86 127.56-9.11 124.75-9.11L124.75-9.11Q123.28-9.11 121.67-9.4L121.67-9.4Q121.77-8.35 122.28-7.59 122.8-6.84 123.58-6.35 124.36-5.86 125.35-5.63 126.34-5.4 127.39-5.4L127.39-5.4Q128.56-5.4 129.64-5.6 130.73-5.81 131.73-6.15 132.73-6.49 133.66-6.91 134.59-7.32 135.42-7.74L135.42-7.74Q135.64-7.79 135.8-7.82 135.95-7.86 136.1-7.86L136.1-7.86Q136.1-7.86 136.09-7.47 136.08-7.08 136.08-6.37 136.08-5.66 136.06-4.66 136.05-3.66 136.03-2.44L136.03-2.44Q136.1-2.32 136.13-2.2 136.15-2.08 136.15-2L136.15-2Q136.15-1.71 135.61-1.37 135.08-1.03 134.21-0.66 133.34-0.29 132.23 0.05 131.12 0.39 129.97 0.67 128.83 0.95 127.75 1.11 126.68 1.27 125.87 1.27L125.87 1.27Q123.23 1.27 120.76 0.35 118.28-0.56 116.36-2.27 114.45-3.98 113.3-6.42 112.15-8.86 112.15-11.91L112.15-11.91Q112.15-15.11 113.25-17.91 114.35-20.7 116.34-22.78 118.33-24.85 121.09-26.05 123.85-27.25 127.17-27.25ZM126.87-20.75L126.87-20.75Q125.87-20.75 125.03-20.32 124.19-19.9 123.49-19.1 122.8-18.31 122.28-17.2 121.77-16.09 121.45-14.75L121.45-14.75Q123.97-15.19 125.63-15.67 127.29-16.16 128.29-16.66 129.29-17.16 129.7-17.66 130.12-18.16 130.12-18.63L130.12-18.63Q130.12-19.07 129.79-19.46 129.46-19.85 128.97-20.14 128.48-20.43 127.91-20.59 127.34-20.75 126.87-20.75ZM142.15-0.32L142.15-0.32Q141.66-0.44 141.49-0.7 141.32-0.95 141.32-1.27L141.32-1.27Q141.32-1.34 141.34-1.37 141.35-1.39 141.35-1.46L141.35-1.46Q141.54-4.1 141.77-6.99 142.01-9.89 142.28-12.88 142.54-15.87 142.81-18.85 143.08-21.83 143.35-24.63L143.35-24.63 143.32-24.63Q143.23-24.63 142.78-24.48 142.32-24.32 141.75-24.13 141.18-23.95 140.59-23.8 140-23.66 139.64-23.66L139.64-23.66Q139.32-23.66 139.19-23.9 139.05-24.15 139.05-24.44L139.05-24.44Q139.05-24.66 139.13-24.85L139.13-24.85Q139.78-26.76 140.49-28.42 141.2-30.08 141.91-31.84L141.91-31.84Q143.76-32.84 145.77-33.58 147.77-34.33 149.81-34.83 151.85-35.33 153.87-35.58 155.9-35.84 157.8-35.84L157.8-35.84Q160.46-35.84 162.82-35.28 165.18-34.72 166.92-33.58 168.67-32.45 169.68-30.73 170.69-29 170.69-26.68L170.69-26.68Q170.69-25.68 170.25-24.76 169.81-23.83 169.12-22.99 168.42-22.14 167.57-21.42 166.71-20.7 165.88-20.12L165.88-20.12Q167.06-19.26 168-18.57 168.94-17.87 169.59-17.11 170.25-16.36 170.6-15.42 170.94-14.48 170.94-13.13L170.94-13.13Q170.94-11.08 170.22-9.22 169.5-7.35 168.24-5.75 166.98-4.15 165.26-2.86 163.54-1.56 161.53-0.65 159.51 0.27 157.28 0.77 155.04 1.27 152.77 1.27L152.77 1.27Q151.94 1.27 150.55 1.1 149.16 0.93 147.63 0.7 146.11 0.46 144.63 0.18 143.15-0.1 142.15-0.32ZM153.41-27.1L153.41-27.1Q152.94-24.22 152.63-21.25 152.31-18.29 152.08-15.49 151.85-12.7 151.67-10.18 151.5-7.67 151.33-5.69L151.33-5.69Q152.31-5.69 153.44-5.8 154.58-5.91 155.7-6.18 156.83-6.45 157.89-6.87 158.95-7.3 159.76-7.93 160.56-8.57 161.05-9.44 161.54-10.3 161.54-11.43L161.54-11.43Q161.54-12.11 161.12-12.63 160.71-13.16 160.06-13.54 159.41-13.92 158.63-14.17 157.85-14.43 157.11-14.59 156.36-14.75 155.74-14.83 155.12-14.92 154.8-14.97L154.8-14.97Q154.46-15.01 154.36-15.21 154.26-15.41 154.26-15.7L154.26-15.7Q154.26-16.02 154.65-16.65 155.04-17.29 155.73-18.38L155.73-18.38 156.75-20.02Q157.41-20.26 158.18-20.63 158.95-21 159.61-21.47 160.27-21.95 160.71-22.55 161.15-23.14 161.15-23.85L161.15-23.85Q161.15-25.85 160.28-26.92 159.41-27.98 157.78-27.98L157.78-27.98Q155.92-27.98 153.41-27.1ZM174.21-10.35L174.21-10.35Q174.52-13.7 174.84-16.97 175.16-20.24 175.4-23.68L175.4-23.68Q175.45-24.49 175.56-24.79 175.67-25.1 176.11-25.2L176.11-25.2Q178.19-25.61 180.46-26.06 182.73-26.51 184.85-27.22L184.85-27.22Q184.92-27.25 185.07-27.25L185.07-27.25Q185.34-27.25 185.34-27.05L185.34-27.05 183.14-3.27Q183.07-2.47 182.97-2.16 182.87-1.86 182.43-1.76L182.43-1.76Q180.36-1.12 178.23-0.34 176.11 0.44 173.74 1.25L173.74 1.25Q173.67 1.27 173.52 1.27L173.52 1.27Q173.25 1.27 173.25 1.03L173.25 1.03Q173.25 1 173.3 0.37 173.35-0.27 173.44-1.27 173.52-2.27 173.62-3.52 173.72-4.76 173.83-6.01 173.94-7.25 174.04-8.4 174.13-9.55 174.21-10.35ZM176.04-29.83L176.04-29.83Q176.11-30.88 176.15-31.45 176.18-32.01 176.21-32.29 176.23-32.57 176.23-32.64 176.23-32.71 176.24-32.75 176.26-32.79 176.27-32.9 176.28-33.01 176.31-33.36 176.33-33.72 176.38-34.4 176.43-35.08 176.53-36.28L176.53-36.28Q176.57-37.08 176.68-37.39 176.79-37.7 177.23-37.79L177.23-37.79Q179.31-38.21 181.58-38.66 183.85-39.11 185.97-39.82L185.97-39.82Q186.05-39.84 186.19-39.84L186.19-39.84Q186.27-39.7 186.39-39.65L186.39-39.65 186.46-39.6 185.93-32.91Q185.85-32.1 185.74-31.79 185.63-31.47 185.22-31.4L185.22-31.4Q183.14-31.01 181.02-30.54 178.89-30.08 176.53-29.61L176.53-29.61Q176.45-29.59 176.31-29.59L176.31-29.59Q176.04-29.59 176.04-29.83ZM206.21-18.82L201.67-18.82Q201.33-16.26 201.02-13.71 200.72-11.16 200.64-8.94L200.64-8.94Q200.64-7.98 200.79-7.35 200.94-6.71 201.22-6.35 201.5-5.98 201.89-5.82 202.28-5.66 202.77-5.66L202.77-5.66Q203.55-5.66 204.48-5.9 205.4-6.13 206.33-6.49L206.33-6.49Q206.63-6.62 206.83-6.68 207.04-6.74 207.19-6.74L207.19-6.74Q207.43-6.74 207.52-6.52 207.6-6.3 207.69-5.75 207.77-5.2 207.94-4.27 208.11-3.34 208.51-1.93L208.51-1.93Q208.53-1.81 208.54-1.72 208.55-1.64 208.55-1.56L208.55-1.56Q208.55-1.22 208.3-1.07 208.04-0.93 207.46-0.73L207.46-0.73Q206.45-0.39 205.34-0.04 204.23 0.32 203.15 0.61 202.06 0.9 201.06 1.09 200.06 1.27 199.3 1.27L199.3 1.27Q195.22 1.27 193.36-0.76 191.49-2.78 191.49-6.93L191.49-6.93Q191.49-7.64 191.54-8.39 191.59-9.13 191.66-9.94L191.66-9.94Q191.9-12.38 192.09-14.56 192.27-16.75 192.47-18.75L192.47-18.75 189.9-18.75Q188.58-18.75 188-18.86 187.41-18.97 187.41-19.31L187.41-19.31Q187.41-19.41 187.66-19.84 187.9-20.26 188.28-20.86 188.66-21.46 189.1-22.14 189.54-22.83 189.94-23.43 190.34-24.02 190.63-24.46 190.93-24.9 191-25L191-25 192.73-25Q192.95-26.86 193.09-28.11 193.22-29.37 193.31-30.2 193.39-31.03 193.47-31.48 193.54-31.93 193.63-32.15 193.71-32.37 193.84-32.43 193.98-32.5 194.2-32.54L194.2-32.54Q195.3-32.76 196.32-32.95 197.35-33.13 198.37-33.33 199.4-33.52 200.46-33.78 201.52-34.03 202.67-34.38L202.67-34.38Q202.74-34.38 202.77-34.39 202.79-34.4 202.87-34.4L202.87-34.4Q203.16-34.4 203.16-34.2L203.16-34.2 203.16-34.16Q203.04-32.81 202.78-30.42 202.52-28.03 202.21-25L202.21-25 208.75-25Q208.94-25 209.13-24.87 209.31-24.73 209.31-24.41L209.31-24.41Q209.31-24.29 209.02-23.54 208.73-22.78 208.19-21.56L208.19-21.56 207.31-19.58Q207.14-19.21 206.96-19.04 206.77-18.87 206.21-18.82L206.21-18.82Z" opacity="1" transform="matrix(1,0,0,1,0,0)" fill="#ffccea" class="wordmark-text-0" data-fill-palette-color="primary" id="text-0"></path></svg></g></svg></g></svg></g></svg></g></svg></g><defs></defs></svg><rect width="395.52" height="101.26096317280454" fill="none" stroke="none" visibility="hidden"></rect></g></svg></g></svg>