<?xml version="1.0" standalone="no"?>
<!DOCTYPE svg PUBLIC "-//W3C//DTD SVG 20010904//EN"
 "http://www.w3.org/TR/2001/REC-SVG-20010904/DTD/svg10.dtd">
<svg version="1.0" xmlns="http://www.w3.org/2000/svg"
 width="512.000000pt" height="512.000000pt" viewBox="0 0 512.000000 512.000000"
 preserveAspectRatio="xMidYMid meet">

<g transform="translate(0.000000,512.000000) scale(0.100000,-0.100000)"
fill="#000000" stroke="none">
<path d="M2525 5054 c-9 -9 -49 -83 -90 -164 l-74 -147 -168 -23 c-267 -36
-271 -47 -84 -229 l129 -126 -29 -160 c-17 -88 -27 -170 -24 -183 3 -12 16
-27 29 -33 19 -9 46 1 184 70 l162 81 164 -82 164 -82 27 18 c32 21 32 25 -9
249 l-23 127 128 123 c103 98 129 128 129 150 0 17 -8 32 -22 40 -13 8 -99 25
-191 37 l-168 23 -71 141 c-92 184 -119 213 -163 170z"/>
<path d="M619 4227 c-8 -7 -50 -79 -93 -162 -43 -82 -79 -151 -80 -152 -2 -2
-340 -53 -352 -53 -2 0 -11 -11 -19 -24 -15 -22 -15 -27 -1 -54 9 -17 20 -32
25 -34 6 -1 58 -50 117 -108 l106 -105 -27 -156 c-32 -185 -31 -210 8 -224 25
-8 46 0 185 72 l157 82 155 -80 c234 -119 244 -113 199 141 l-30 165 131 125
c185 179 182 187 -80 225 -95 14 -175 26 -176 28 -1 1 -36 70 -78 154 -82 166
-106 192 -147 160z"/>
<path d="M1504 4160 c-36 -14 -64 -59 -64 -102 0 -36 8 -47 79 -122 185 -193
261 -384 291 -724 11 -133 16 -150 56 -181 45 -36 118 -23 150 27 37 57 0 384
-68 592 -50 156 -165 337 -281 448 -73 68 -111 83 -163 62z"/>
<path d="M3525 4155 c-119 -63 -294 -319 -358 -520 -66 -211 -100 -520 -63
-577 32 -50 105 -63 150 -27 40 31 45 48 56 181 30 340 106 531 291 724 72 75
79 86 79 123 0 80 -85 133 -155 96z"/>
<path d="M4392 4104 c-13 -8 -56 -83 -97 -164 -70 -140 -77 -149 -107 -155
-18 -3 -95 -14 -170 -25 -158 -21 -178 -29 -178 -69 0 -24 22 -50 127 -151
l127 -122 -29 -169 c-43 -257 -36 -262 200 -141 l152 79 154 -78 c85 -43 163
-78 175 -78 11 -1 29 8 39 19 17 18 16 26 -13 192 l-31 173 130 125 c184 178
181 187 -81 225 -95 14 -175 26 -176 28 -1 1 -36 70 -78 154 -63 127 -95 173
-118 173 -2 0 -14 -7 -26 -16z"/>
<path d="M2498 3734 c-55 -29 -58 -47 -58 -354 0 -232 3 -286 15 -310 17 -32
61 -60 95 -60 34 0 78 28 95 60 12 24 15 78 15 310 0 309 -3 325 -60 355 -36
19 -67 19 -102 -1z"/>
<path d="M494 2800 c-34 -13 -56 -49 -279 -440 -130 -229 -209 -378 -212 -401
-6 -45 9 -74 50 -99 31 -19 55 -20 585 -20 l552 0 0 -226 c0 -136 4 -233 10
-245 16 -29 59 -24 217 28 l143 47 148 -48 c81 -27 152 -51 159 -53 7 -3 24 7
38 21 l25 25 0 226 0 225 65 0 c35 0 76 5 90 12 17 7 83 93 180 232 84 122
160 230 169 241 14 18 15 -80 16 -1017 l0 -1038 -900 0 -900 0 0 616 c0 683 2
667 -65 698 -41 20 -58 20 -95 1 -63 -33 -60 10 -60 -763 l0 -704 34 -34 34
-34 2062 0 2062 0 34 34 34 34 0 715 0 715 -26 31 c-33 39 -83 50 -131 27 -64
-31 -63 -17 -63 -711 l0 -625 -900 0 -900 0 0 1038 c1 937 2 1035 16 1017 9
-11 85 -119 169 -241 97 -139 163 -225 180 -232 14 -7 70 -12 125 -12 l100 0
0 -227 c0 -126 4 -233 8 -239 23 -34 45 -33 205 15 l158 48 140 -43 c77 -24
153 -44 169 -44 56 0 60 20 60 267 l0 223 518 0 c494 0 518 1 549 20 41 25 56
54 50 99 -5 41 -422 779 -463 821 l-24 25 -2058 2 c-1147 1 -2066 -2 -2078 -7z
m1813 -272 c-25 -35 -104 -148 -177 -253 -72 -104 -137 -196 -144 -203 -9 -9
-188 -12 -849 -10 l-837 3 126 220 c69 121 136 239 150 263 l25 42 875 0 875
0 -44 -62z m2364 -203 l149 -260 -837 -3 c-661 -2 -840 1 -849 10 -7 7 -72 99
-144 203 -73 105 -152 218 -177 253 l-44 62 877 -2 877 -3 148 -260z"/>
</g>
</svg>
