<?xml version="1.0" standalone="no"?>
<!DOCTYPE svg PUBLIC "-//W3C//DTD SVG 20010904//EN"
 "http://www.w3.org/TR/2001/REC-SVG-20010904/DTD/svg10.dtd">
<svg version="1.0" xmlns="http://www.w3.org/2000/svg"
 width="50.000000pt" height="50.000000pt" viewBox="0 0 50.000000 50.000000"
 preserveAspectRatio="xMidYMid meet">

<g transform="translate(0.000000,50.000000) scale(0.100000,-0.100000)"
fill="#000000" stroke="none">
<path d="M270 480 c-8 -5 -34 -10 -57 -10 -24 0 -43 -4 -43 -10 0 -13 76 -13
100 0 14 8 21 6 27 -4 13 -23 65 -46 103 -46 35 0 36 -1 32 -35 -3 -22 3 -46
15 -67 14 -25 17 -39 10 -59 -11 -29 -1 -99 13 -99 6 0 7 19 4 44 -4 26 -2 52
6 65 10 19 9 26 -7 43 -13 14 -18 35 -17 74 l0 54 -45 0 c-46 0 -111 29 -111
50 0 13 -11 13 -30 0z"/>
<path d="M200 395 c-20 -14 -47 -25 -66 -25 -28 0 -35 -6 -53 -43 -12 -24 -26
-70 -32 -103 -6 -32 -15 -67 -21 -77 -5 -10 -7 -22 -3 -25 12 -13 33 30 40 81
4 29 16 73 27 100 20 46 21 47 65 47 32 0 54 -7 79 -26 19 -15 34 -30 34 -35
0 -12 -37 -12 -44 0 -3 5 -17 11 -31 13 -18 4 -29 -1 -41 -19 -18 -28 -9 -47
10 -21 7 10 16 15 19 11 12 -11 8 -88 -5 -101 -6 -6 -8 -15 -4 -19 14 -15 36
31 36 75 0 47 22 56 28 11 2 -13 9 -29 17 -34 7 -6 15 -21 17 -34 5 -34 32
-49 60 -33 13 8 7 -2 -13 -21 -20 -19 -64 -45 -98 -57 -57 -21 -79 -35 -69
-45 2 -2 35 8 73 23 90 35 170 108 181 166 5 29 3 42 -8 50 -8 6 -13 16 -11
23 2 6 -5 21 -16 32 -12 12 -21 27 -21 34 0 18 -21 37 -40 37 -8 0 -21 9 -28
20 -16 27 -41 25 -82 -5z m65 -20 c0 -22 -22 -30 -44 -16 -12 8 -13 12 -1 26
17 21 45 15 45 -10z m65 -35 c0 -29 -31 -42 -52 -23 -17 15 -17 17 0 29 26 20
52 17 52 -6z m33 -46 c11 -11 -4 -32 -43 -59 -62 -43 -85 -11 -28 37 32 26 58
35 71 22z m26 -71 c0 -18 -42 -57 -73 -69 -10 -4 -18 1 -23 11 -4 13 4 26 28
46 39 33 69 38 68 12z"/>
</g>
</svg>
