<?xml version="1.0" standalone="no"?>
<!DOCTYPE svg PUBLIC "-//W3C//DTD SVG 20010904//EN"
 "http://www.w3.org/TR/2001/REC-SVG-20010904/DTD/svg10.dtd">
<svg version="1.0" xmlns="http://www.w3.org/2000/svg"
 width="50.000000pt" height="50.000000pt" viewBox="0 0 50.000000 50.000000"
 preserveAspectRatio="xMidYMid meet">

<g transform="translate(0.000000,50.000000) scale(0.100000,-0.100000)"
fill="#000000" stroke="none">
<path d="M12 263 l3 -187 63 -18 c59 -18 67 -18 117 -3 49 14 60 14 117 0 59
-15 66 -15 118 3 l55 19 3 186 c1 103 -1 187 -6 187 -5 0 -32 -7 -60 -15 -47
-14 -58 -14 -113 0 -55 15 -65 15 -115 0 -49 -14 -60 -14 -113 0 -32 8 -62 15
-65 15 -4 0 -5 -84 -4 -187z m184 152 c49 14 59 14 115 0 54 -14 66 -14 110
-2 l49 15 0 -168 0 -168 -49 -17 c-45 -15 -54 -15 -111 0 -56 15 -66 15 -116
0 -49 -14 -59 -14 -109 0 l-55 16 0 169 0 168 56 -14 c49 -13 61 -13 110 1z"/>
<path d="M140 320 c0 -5 4 -10 9 -10 6 0 13 5 16 10 3 6 -1 10 -9 10 -9 0 -16
-4 -16 -10z"/>
<path d="M190 320 c0 -5 5 -10 10 -10 6 0 10 5 10 10 0 6 -4 10 -10 10 -5 0
-10 -4 -10 -10z"/>
<path d="M110 289 c0 -5 5 -7 10 -4 6 3 10 8 10 11 0 2 -4 4 -10 4 -5 0 -10
-5 -10 -11z"/>
<path d="M230 290 c0 -5 5 -10 11 -10 5 0 7 5 4 10 -3 6 -8 10 -11 10 -2 0 -4
-4 -4 -10z"/>
<path d="M80 250 c0 -5 5 -10 10 -10 6 0 10 5 10 10 0 6 -4 10 -10 10 -5 0
-10 -4 -10 -10z"/>
<path d="M256 251 c-4 -5 -2 -12 3 -15 5 -4 12 -2 15 3 4 5 2 12 -3 15 -5 4
-12 2 -15 -3z"/>
<path d="M360 232 c0 -4 6 -14 12 -20 10 -10 10 -17 0 -33 -16 -25 -8 -37 13
-19 12 10 18 10 30 0 21 -17 29 -6 14 18 -10 17 -10 23 1 36 17 21 5 33 -15
16 -12 -10 -19 -10 -27 -2 -14 14 -28 16 -28 4z"/>
<path d="M295 210 c3 -5 8 -10 11 -10 2 0 4 5 4 10 0 6 -5 10 -11 10 -5 0 -7
-4 -4 -10z"/>
<path d="M340 190 c0 -5 5 -10 10 -10 6 0 10 5 10 10 0 6 -4 10 -10 10 -5 0
-10 -4 -10 -10z"/>
</g>
</svg>
