<?xml version="1.0" encoding="UTF-8"?>
<!DOCTYPE svg PUBLIC "-//W3C//DTD SVG 1.1//EN" "http://www.w3.org/Graphics/SVG/1.1/DTD/svg11.dtd">
<svg xmlns="http://www.w3.org/2000/svg" version="1.1" width="50px" height="50px" style="shape-rendering:geometricPrecision; text-rendering:geometricPrecision; image-rendering:optimizeQuality; fill-rule:evenodd; clip-rule:evenodd" xmlns:xlink="http://www.w3.org/1999/xlink">
<g><path style="opacity:0.645" fill="#000000" d="M 49.5,8.5 C 49.5,11.8333 49.5,15.1667 49.5,18.5C 45.6521,25.0457 39.9854,27.2124 32.5,25C 25.4505,20.5131 23.6172,14.3465 27,6.5C 31.1396,1.78864 36.3062,0.288638 42.5,2C 45.3576,3.69406 47.691,5.86073 49.5,8.5 Z M 38.5,4.5 C 42.0897,4.54411 44.5897,6.21077 46,9.5C 47.8333,19.6667 43.6667,23.8333 33.5,22C 30.2108,20.5897 28.5441,18.0897 28.5,14.5C 29.5,14.5 30.5,14.5 31.5,14.5C 32.1667,10.5 34.5,8.16667 38.5,7.5C 38.5,6.5 38.5,5.5 38.5,4.5 Z"/></g>
<g><path style="opacity:0.624" fill="#000000" d="M 44.5,49.5 C 41.5,49.5 38.5,49.5 35.5,49.5C 26.0405,46.0697 16.3738,42.903 6.5,40C 3.64238,38.3059 1.30904,36.1393 -0.5,33.5C -0.5,30.1667 -0.5,26.8333 -0.5,23.5C 3.32694,17.8498 8.66028,16.0165 15.5,18C 26.2294,24.7283 36.3961,32.2283 46,40.5C 46.932,43.8231 46.432,46.8231 44.5,49.5 Z M 10.5,19.5 C 22.2353,25.7939 33.0687,33.4605 43,42.5C 43.49,43.7932 43.6567,45.1266 43.5,46.5C 30.0165,44.3953 17.0165,40.562 4.5,35C 0.577472,27.3646 2.57747,22.198 10.5,19.5 Z M 8.5,26.5 C 9.83333,26.5 11.1667,26.5 12.5,26.5C 12.5,27.8333 12.5,29.1667 12.5,30.5C 11.1667,30.5 9.83333,30.5 8.5,30.5C 8.5,29.1667 8.5,27.8333 8.5,26.5 Z"/></g>
<g><path style="opacity:0.699" fill="#000000" d="M 7.5,23.5 C 15.4863,22.998 17.4863,26.1647 13.5,33C 5.42402,33.8047 3.42402,30.638 7.5,23.5 Z M 8.5,26.5 C 8.5,27.8333 8.5,29.1667 8.5,30.5C 9.83333,30.5 11.1667,30.5 12.5,30.5C 12.5,29.1667 12.5,27.8333 12.5,26.5C 11.1667,26.5 9.83333,26.5 8.5,26.5 Z"/></g>
</svg>
