<?xml version="1.0" encoding="UTF-8"?>
<!DOCTYPE svg PUBLIC "-//W3C//DTD SVG 1.1//EN" "http://www.w3.org/Graphics/SVG/1.1/DTD/svg11.dtd">
<svg xmlns="http://www.w3.org/2000/svg" version="1.1" width="512px" height="512px" style="shape-rendering:geometricPrecision; text-rendering:geometricPrecision; image-rendering:optimizeQuality; fill-rule:evenodd; clip-rule:evenodd" xmlns:xlink="http://www.w3.org/1999/xlink">
<g><path style="opacity:0.943" fill="#000000" d="M 206.5,69.5 C 244.501,69.3333 282.501,69.5 320.5,70C 340.975,71.9832 354.141,82.8165 360,102.5C 360.5,109.826 360.666,117.159 360.5,124.5C 368.831,124.888 376.497,127.388 383.5,132C 415.5,150.667 447.5,169.333 479.5,188C 496.47,203.853 499.97,222.353 490,243.5C 456.333,301.5 422.667,359.5 389,417.5C 371.25,436.645 351.083,439.478 328.5,426C 304.167,411.833 279.833,397.667 255.5,383.5C 227.833,399.333 200.167,415.167 172.5,431C 151.223,438.35 133.723,433.183 120,415.5C 85.1471,355.794 50.8137,295.794 17,235.5C 12.0066,217.488 16.1733,201.988 29.5,189C 63.0025,169.081 96.6692,149.414 130.5,130C 141.9,124.232 153.733,123.065 166,126.5C 166.333,118.833 166.667,111.167 167,103.5C 170.693,89.263 179.193,79.0963 192.5,73C 197.184,71.3473 201.85,70.1807 206.5,69.5 Z M 204.5,89.5 C 243.835,89.3333 283.168,89.5 322.5,90C 333.075,92.3178 339.242,98.8178 341,109.5C 341.667,115.5 341.667,121.5 341,127.5C 333.152,131.013 326.819,136.346 322,143.5C 289.667,199.5 257.333,255.5 225,311.5C 221.377,317.409 218.877,323.743 217.5,330.5C 200.331,334.013 189.831,327.346 186,310.5C 185.667,288.167 185.333,265.833 185,243.5C 178.953,236.844 172.953,236.844 167,243.5C 166.333,268.5 166.333,293.5 167,318.5C 171.429,334.595 181.596,345.095 197.5,350C 204.799,351.02 212.132,351.687 219.5,352C 223.173,360.023 228.507,366.69 235.5,372C 211.5,385.667 187.5,399.333 163.5,413C 152.02,416.396 142.853,413.229 136,403.5C 103.667,347.5 71.3333,291.5 39,235.5C 31.3783,221.374 34.2117,209.874 47.5,201C 80.1667,182.333 112.833,163.667 145.5,145C 152.602,143.02 159.269,144.02 165.5,148C 166.32,157.756 166.82,167.59 167,177.5C 171.26,182.884 176.426,183.884 182.5,180.5C 183.333,179.5 184.167,178.5 185,177.5C 185.05,153.459 185.717,129.459 187,105.5C 190.289,97.2896 196.122,91.9563 204.5,89.5 Z M 357.5,143.5 C 361.621,144.135 365.621,145.302 369.5,147C 402.167,166 434.833,185 467.5,204C 476.781,213.845 477.948,224.679 471,236.5C 439,291.833 407,347.167 375,402.5C 366.589,414.525 355.756,417.358 342.5,411C 310.997,392.414 279.33,374.081 247.5,356C 237.195,347.832 234.695,337.666 240,325.5C 273.667,267.5 307.333,209.5 341,151.5C 345.795,147.19 351.295,144.523 357.5,143.5 Z M 376.5,240.5 C 377.5,240.5 378.5,240.5 379.5,240.5C 383.654,256.782 387.654,273.115 391.5,289.5C 389.753,301.743 382.753,306.91 370.5,305C 367.751,303.877 365.251,302.377 363,300.5C 360.302,295.391 357.802,290.224 355.5,285C 353.487,283.743 351.321,282.909 349,282.5C 334.659,287.747 325.492,283.08 321.5,268.5C 322.122,263.088 324.456,258.588 328.5,255C 344.441,249.628 360.441,244.794 376.5,240.5 Z"/></g>
<g><path style="opacity:0.885" fill="#000000" d="M 174.5,200.5 C 184.588,201.673 187.755,207.006 184,216.5C 178.667,221.833 173.333,221.833 168,216.5C 164.451,208.639 166.617,203.306 174.5,200.5 Z"/></g>
<g><path style="opacity:0.943" fill="#000000" d="M 381.5,218.5 C 387.59,217.137 392.09,219.137 395,224.5C 401.679,246.049 407.179,267.882 411.5,290C 406.867,317.898 390.7,329.065 363,323.5C 357.194,321.359 352.194,318.025 348,313.5C 340.999,322.847 342.166,330.847 351.5,337.5C 355.114,344.427 353.447,349.594 346.5,353C 340.891,353.7 336.224,351.866 332.5,347.5C 329.197,343.724 326.53,339.557 324.5,335C 316.515,335.871 308.848,334.538 301.5,331C 296.655,325.938 296.322,320.605 300.5,315C 302.513,313.743 304.679,312.909 307,312.5C 317.749,318.203 325.582,315.536 330.5,304.5C 307.869,296.245 299.036,280.245 304,256.5C 307.688,246.81 314.188,239.644 323.5,235C 342.951,229.475 362.284,223.975 381.5,218.5 Z M 376.5,240.5 C 360.441,244.794 344.441,249.628 328.5,255C 324.456,258.588 322.122,263.088 321.5,268.5C 325.492,283.08 334.659,287.747 349,282.5C 351.321,282.909 353.487,283.743 355.5,285C 357.802,290.224 360.302,295.391 363,300.5C 365.251,302.377 367.751,303.877 370.5,305C 382.753,306.91 389.753,301.743 391.5,289.5C 387.654,273.115 383.654,256.782 379.5,240.5C 378.5,240.5 377.5,240.5 376.5,240.5 Z"/></g>
</svg>
