<?xml version="1.0" standalone="no"?>
<!DOCTYPE svg PUBLIC "-//W3C//DTD SVG 20010904//EN"
 "http://www.w3.org/TR/2001/REC-SVG-20010904/DTD/svg10.dtd">
<svg version="1.0" xmlns="http://www.w3.org/2000/svg"
 width="50.000000pt" height="50.000000pt" viewBox="0 0 50.000000 50.000000"
 preserveAspectRatio="xMidYMid meet">

<g transform="translate(0.000000,50.000000) scale(0.100000,-0.100000)"
fill="#000000" stroke="none">
<path d="M202 437 c-28 -29 -28 -57 -1 -91 l20 -26 -23 -9 c-105 -41 -165 -66
-175 -74 -7 -5 -13 -31 -13 -57 l0 -47 93 -44 c127 -60 170 -60 292 1 l90 45
3 46 c2 29 -2 49 -10 56 -11 8 -70 33 -176 74 l-23 9 20 26 c27 35 27 65 -2
92 -30 28 -68 28 -95 -1z m82 -13 c31 -30 9 -84 -34 -84 -24 0 -50 26 -50 50
0 24 26 50 50 50 10 0 26 -7 34 -16z m-24 -164 c0 -33 -4 -60 -10 -60 -6 0
-10 27 -10 60 0 33 4 60 10 60 6 0 10 -27 10 -60z m-25 -70 c25 -21 45 6 45
60 l0 48 88 -35 c48 -19 91 -39 96 -43 14 -14 -171 -100 -214 -100 -43 0 -228
86 -214 100 5 4 47 24 94 42 l85 34 3 -47 c2 -26 10 -53 17 -59z m-108 -50
c52 -24 100 -40 123 -40 22 0 72 16 124 40 47 22 89 40 91 40 3 0 5 -7 5 -15
0 -22 -174 -105 -220 -105 -46 0 -220 83 -220 105 0 21 1 20 97 -25z"/>
<path d="M85 220 c-4 -7 -3 -16 3 -22 14 -14 57 -6 57 12 0 18 -50 26 -60 10z"/>
</g>
</svg>
