<?xml version="1.0" encoding="UTF-8"?>
<!DOCTYPE svg PUBLIC "-//W3C//DTD SVG 1.1//EN" "http://www.w3.org/Graphics/SVG/1.1/DTD/svg11.dtd">
<svg xmlns="http://www.w3.org/2000/svg" version="1.1" width="512px" height="512px" style="shape-rendering:geometricPrecision; text-rendering:geometricPrecision; image-rendering:optimizeQuality; fill-rule:evenodd; clip-rule:evenodd" xmlns:xlink="http://www.w3.org/1999/xlink">
<g><path style="opacity:0.88" fill="#000000" d="M 275.5,55.5 C 278.97,54.8748 281.804,55.8748 284,58.5C 284.752,67.208 284.419,75.8746 283,84.5C 280.503,86.4782 277.669,86.9782 274.5,86C 272.703,84.4059 271.703,82.4059 271.5,80C 272.24,73.1906 272.74,66.3573 273,59.5C 273.662,58.0161 274.496,56.6828 275.5,55.5 Z"/></g>
<g><path style="opacity:0.871" fill="#000000" d="M 313.5,73.5 C 321,72.1657 323.833,75.1657 322,82.5C 316.167,89 310.333,95.5 304.5,102C 297.333,103.5 294.5,100.667 296,93.5C 302.042,86.9617 307.875,80.295 313.5,73.5 Z"/></g>
<g><path style="opacity:0.92" fill="#000000" d="M 137.5,74.5 C 163.502,74.3334 189.502,74.5 215.5,75C 220.789,76.2244 224.955,79.0578 228,83.5C 237.227,105.614 247.227,127.281 258,148.5C 263.126,147.408 268.293,147.241 273.5,148C 320.976,158.029 368.642,167.029 416.5,175C 420.901,175.911 425.068,177.411 429,179.5C 448.419,208.673 468.086,237.673 488,266.5C 489.336,269.009 490.17,271.676 490.5,274.5C 472.837,326.655 454.67,378.655 436,430.5C 433.514,438.303 430.347,445.803 426.5,453C 420.328,455.975 413.995,456.308 407.5,454C 355.598,444.22 303.931,433.553 252.5,422C 250.333,419.833 248.167,417.667 246,415.5C 226.502,386.507 207.502,357.174 189,327.5C 186.261,321.357 184.095,315.024 182.5,308.5C 185.775,297.651 189.275,286.984 193,276.5C 188.172,283.579 181.505,287.246 173,287.5C 142.533,284.306 112.033,281.473 81.5,279C 79.714,278.215 78.214,277.049 77,275.5C 58.6667,235.167 40.3333,194.833 22,154.5C 19.6519,150.252 20.1519,146.419 23.5,143C 58.0012,121.917 92.3345,100.584 126.5,79C 130.157,77.1776 133.824,75.6776 137.5,74.5 Z M 146.5,85.5 C 160.092,86.3155 173.759,86.8155 187.5,87C 162,102.918 136.333,118.584 110.5,134C 108.208,135.29 106.208,136.957 104.5,139C 86.1349,140.184 67.8015,140.85 49.5,141C 79.3331,123.251 109,105.251 138.5,87C 141.365,86.8171 144.031,86.3171 146.5,85.5 Z M 233.5,196.5 C 228.3,210.263 222.8,223.929 217,237.5C 203.5,247.667 190,257.833 176.5,268C 173.49,270.222 170.99,269.722 169,266.5C 150.333,228.5 131.667,190.5 113,152.5C 112.333,150.833 112.333,149.167 113,147.5C 146.199,126.903 179.533,106.569 213,86.5C 217.207,89.8859 220.207,94.2192 222,99.5C 230.763,120.193 239.93,140.693 249.5,161C 245.93,167.975 242.763,175.142 240,182.5C 235.914,169.541 227.747,166.041 215.5,172C 207.5,180 207.5,188 215.5,196C 221.425,199.16 227.425,199.326 233.5,196.5 Z M 72.5,151.5 C 81.8333,151.5 91.1667,151.5 100.5,151.5C 100.523,153.927 101.023,156.26 102,158.5C 119.5,194.167 137,229.833 154.5,265.5C 153.167,265.833 151.833,266.167 150.5,266.5C 130.119,264.384 109.786,262.05 89.5,259.5C 72.9755,224.595 56.6421,189.595 40.5,154.5C 51.2918,153.234 61.9585,152.234 72.5,151.5 Z M 264.5,158.5 C 315.357,169.171 366.357,179.005 417.5,188C 399.271,241.521 380.937,295.021 362.5,348.5C 361.833,348.833 361.167,349.167 360.5,349.5C 307.209,335.469 253.709,322.469 200,310.5C 216.544,271.058 232.877,231.392 249,191.5C 253.667,180.171 258.834,169.171 264.5,158.5 Z M 426.5,198.5 C 440.137,217.654 453.637,236.987 467,256.5C 469.629,260.115 471.796,263.948 473.5,268C 455.783,321.819 437.283,375.319 418,428.5C 403.016,404.021 388.183,379.521 373.5,355C 390.674,302.644 408.341,250.477 426.5,198.5 Z M 206.5,325.5 C 217.688,326.902 229.021,329.068 240.5,332C 281.172,342.001 321.838,352.001 362.5,362C 377.876,385.915 392.876,410.082 407.5,434.5C 407.167,434.833 406.833,435.167 406.5,435.5C 357.769,426.087 309.102,416.42 260.5,406.5C 242.725,379.263 224.725,352.263 206.5,325.5 Z"/></g>
<g><path style="opacity:0.873" fill="#000000" d="M 147.5,91.5 C 151.106,91.2108 154.606,91.5442 158,92.5C 158.658,96.0252 157.491,98.8586 154.5,101C 148.569,105.48 141.903,108.313 134.5,109.5C 130.442,109.288 128.942,107.288 130,103.5C 131.046,101.91 132.213,100.41 133.5,99C 138.101,96.2021 142.768,93.7021 147.5,91.5 Z"/></g>
<g><path style="opacity:0.889" fill="#000000" d="M 347.5,113.5 C 354.68,114.857 356.346,118.69 352.5,125C 341.222,127.495 329.889,128.662 318.5,128.5C 315.619,124.637 315.952,121.137 319.5,118C 328.998,116.651 338.332,115.151 347.5,113.5 Z"/></g>
<g><path style="opacity:0.854" fill="#000000" d="M 103.5,115.5 C 106.617,114.927 108.617,116.094 109.5,119C 106.549,127.284 100.883,132.951 92.5,136C 83.7034,139.206 81.2034,136.706 85,128.5C 90.2609,122.717 96.4276,118.384 103.5,115.5 Z"/></g>
<g><path style="opacity:0.926" fill="#000000" d="M 200.5,117.5 C 215.803,116.63 221.97,123.63 219,138.5C 213.199,146.873 205.699,148.707 196.5,144C 190.688,138.896 189.188,132.729 192,125.5C 194.074,121.923 196.907,119.256 200.5,117.5 Z"/></g>
<g><path style="opacity:0.919" fill="#000000" d="M 151.5,150.5 C 167.808,151.307 172.974,159.307 167,174.5C 159,182.5 151,182.5 143,174.5C 138.042,163.531 140.876,155.531 151.5,150.5 Z"/></g>
<g><path style="opacity:0.942" fill="#000000" d="M 282.5,181.5 C 300.851,182.868 308.018,192.534 304,210.5C 296.781,222.099 286.948,224.932 274.5,219C 262.5,207.667 262.5,196.333 274.5,185C 277.158,183.522 279.825,182.355 282.5,181.5 Z"/></g>
<g><path style="opacity:0.914" fill="#000000" d="M 88.5,198.5 C 102.42,198.596 108.253,205.596 106,219.5C 99.6535,229.293 92.3202,229.96 84,221.5C 81.5758,216.43 80.9091,211.097 82,205.5C 83.6941,202.642 85.8607,200.309 88.5,198.5 Z"/></g>
<g><path style="opacity:0.927" fill="#000000" d="M 176.5,200.5 C 187.761,199.11 194.095,203.944 195.5,215C 194.186,227.008 187.519,231.675 175.5,229C 166.878,224.14 164.378,216.974 168,207.5C 170.464,204.519 173.297,202.186 176.5,200.5 Z"/></g>
<g><path style="opacity:0.943" fill="#000000" d="M 302.5,232.5 C 323.7,232.903 331.2,243.236 325,263.5C 316.74,273.238 306.907,275.071 295.5,269C 285.333,258.655 284.999,247.988 294.5,237C 297.099,235.205 299.766,233.705 302.5,232.5 Z"/></g>
<g><path style="opacity:0.941" fill="#000000" d="M 329.5,280.5 C 340.382,278.361 348.548,282.028 354,291.5C 357.958,303.638 354.458,312.804 343.5,319C 322.667,322.167 313.834,313.334 317,292.5C 319.769,286.895 323.936,282.895 329.5,280.5 Z"/></g>
<g><path style="opacity:0.923" fill="#000000" d="M 421.5,293.5 C 429.835,293.657 434.668,297.991 436,306.5C 437.622,315.681 436.289,324.347 432,332.5C 426.715,337.865 421.715,337.532 417,331.5C 411.523,321.006 411.189,310.34 416,299.5C 417.36,296.977 419.193,294.977 421.5,293.5 Z"/></g>
<g><path style="opacity:0.887" fill="#000000" d="M 316.5,370.5 C 329.696,369.684 340.863,374.018 350,383.5C 352.145,385.895 351.978,388.062 349.5,390C 336.401,390.967 325.234,386.801 316,377.5C 313.912,374.956 314.079,372.623 316.5,370.5 Z"/></g>
<g><path style="opacity:0.876" fill="#000000" d="M 263.5,388.5 C 276.262,388.806 287.095,393.472 296,402.5C 297.495,404.11 297.661,405.776 296.5,407.5C 293.721,409.297 290.721,409.797 287.5,409C 276.775,407.392 267.942,402.559 261,394.5C 260.034,391.66 260.867,389.66 263.5,388.5 Z"/></g>
</svg>
