<?xml version="1.0" encoding="UTF-8"?>
<!DOCTYPE svg PUBLIC "-//W3C//DTD SVG 1.1//EN" "http://www.w3.org/Graphics/SVG/1.1/DTD/svg11.dtd">
<svg xmlns="http://www.w3.org/2000/svg" version="1.1" width="512px" height="512px" style="shape-rendering:geometricPrecision; text-rendering:geometricPrecision; image-rendering:optimizeQuality; fill-rule:evenodd; clip-rule:evenodd" xmlns:xlink="http://www.w3.org/1999/xlink">
<g><path style="opacity:0.962" fill="#f5f5f5" d="M -0.5,369.5 C -0.5,255.167 -0.5,140.833 -0.5,26.5C 3.34795,19.9543 9.01462,17.7876 16.5,20C 83.5993,41.0662 150.766,61.8996 218,82.5C 282.892,62.5362 347.725,42.3695 412.5,22C 417.875,20.1252 423.209,20.1252 428.5,22C 430.617,23.7309 432.117,25.8976 433,28.5C 433.667,101.833 433.667,175.167 433,248.5C 429.046,256.504 422.88,258.671 414.5,255C 411.246,252.658 409.412,249.491 409,245.5C 408.833,180.164 408.333,114.831 407.5,49.5C 348.228,68.3685 288.894,87.0352 229.5,105.5C 228.667,151.163 228.167,196.83 228,242.5C 224.046,250.504 217.88,252.671 209.5,249C 206.246,246.658 204.412,243.491 204,239.5C 203.833,194.496 203.333,149.496 202.5,104.5C 142.942,85.4248 83.2756,66.7582 23.5,48.5C 23.3333,150.834 23.5,253.167 24,355.5C 73.1394,370.99 122.306,386.49 171.5,402C 181.379,408.447 182.046,415.78 173.5,424C 169.961,425.504 166.295,425.837 162.5,425C 109.689,408.729 57.0223,392.063 4.5,375C 2.59809,373.27 0.93142,371.437 -0.5,369.5 Z"/></g>
<g><path style="opacity:0.945" fill="#f5f5f5" d="M 79.5,118.5 C 104.819,125.248 129.819,133.081 154.5,142C 159.16,147.451 159.66,153.284 156,159.5C 151.909,163.305 147.076,164.472 141.5,163C 118.688,156.062 96.0209,148.729 73.5,141C 69.6951,136.909 68.5284,132.076 70,126.5C 72.1348,122.526 75.3015,119.859 79.5,118.5 Z"/></g>
<g><path style="opacity:0.943" fill="#f5f5f5" d="M 351.5,118.5 C 364.258,122.3 366.925,129.8 359.5,141C 336.979,148.729 314.312,156.062 291.5,163C 280.723,165.217 274.723,160.884 273.5,150C 274.68,145.486 277.346,142.153 281.5,140C 304.868,132.485 328.201,125.319 351.5,118.5 Z"/></g>
<g><path style="opacity:0.944" fill="#f5f5f5" d="M 77.5,174.5 C 80.1873,174.336 82.854,174.503 85.5,175C 106.833,181.667 128.167,188.333 149.5,195C 157.064,198.006 159.897,203.506 158,211.5C 155.652,216.355 151.818,219.022 146.5,219.5C 123.748,212.978 101.081,206.145 78.5,199C 70.462,195.757 67.6287,189.923 70,181.5C 71.7668,178.228 74.2668,175.895 77.5,174.5 Z"/></g>
<g><path style="opacity:0.941" fill="#f5f5f5" d="M 346.5,174.5 C 358.631,173.277 364.131,178.61 363,190.5C 362.31,193.196 360.81,195.363 358.5,197C 335.572,204.531 312.572,211.865 289.5,219C 279.669,220.167 274.335,215.833 273.5,206C 274.617,201.75 276.95,198.417 280.5,196C 302.634,188.899 324.634,181.732 346.5,174.5 Z"/></g>
<g><path style="opacity:0.934" fill="#f5f5f5" d="M 77.5,233.5 C 92.62,235.927 107.287,240.094 121.5,246C 127.758,252.603 127.758,259.269 121.5,266C 119.134,267.233 116.634,268.066 114,268.5C 100.197,265.066 86.6973,260.732 73.5,255.5C 69.7264,251.195 68.5597,246.195 70,240.5C 71.7424,237.254 74.2424,234.921 77.5,233.5 Z"/></g>
<g><path style="opacity:0.957" fill="#f5f5f5" d="M 511.5,399.5 C 511.5,402.833 511.5,406.167 511.5,409.5C 505.96,417.051 499.127,418.384 491,413.5C 483.411,418.341 477.078,417.007 472,409.5C 471.578,407.645 471.078,405.811 470.5,404C 472.91,396.345 475.744,388.845 479,381.5C 479.667,366.5 479.667,351.5 479,336.5C 425.813,352.895 372.48,368.895 319,384.5C 288.839,375.961 258.839,366.961 229,357.5C 228.5,391.498 228.333,425.498 228.5,459.5C 274.269,467.077 320.269,468.91 366.5,465C 380.565,463.586 394.565,461.752 408.5,459.5C 408.333,436.831 408.5,414.164 409,391.5C 412.225,380.31 419.059,377.476 429.5,383C 431.041,384.579 432.208,386.413 433,388.5C 433.667,416.833 433.667,445.167 433,473.5C 432.117,476.102 430.617,478.269 428.5,480C 392.498,488.334 355.998,492.167 319,491.5C 281.99,492.166 245.49,488.333 209.5,480C 206.246,477.658 204.412,474.491 204,470.5C 203.667,430.5 203.333,390.5 203,350.5C 181.388,344.055 159.888,337.221 138.5,330C 132.494,323.975 132.16,317.642 137.5,311C 196.287,292.405 255.287,274.405 314.5,257C 317.5,256.333 320.5,256.333 323.5,257C 381.964,274.266 440.298,291.933 498.5,310C 500.378,311.543 501.878,313.376 503,315.5C 503.333,337.833 503.667,360.167 504,382.5C 506.55,388.257 509.05,393.923 511.5,399.5 Z M 317.5,281.5 C 360.845,294.226 404.179,307.059 447.5,320C 405.603,332.975 363.603,345.641 321.5,358C 318.442,358.458 315.442,358.124 312.5,357C 271.762,344.865 231.096,332.532 190.5,320C 233.09,307.609 275.423,294.775 317.5,281.5 Z"/></g>
</svg>
