<?xml version="1.0" encoding="UTF-8"?>
<!DOCTYPE svg PUBLIC "-//W3C//DTD SVG 1.1//EN" "http://www.w3.org/Graphics/SVG/1.1/DTD/svg11.dtd">
<svg xmlns="http://www.w3.org/2000/svg" version="1.1" width="512px" height="512px" style="shape-rendering:geometricPrecision; text-rendering:geometricPrecision; image-rendering:optimizeQuality; fill-rule:evenodd; clip-rule:evenodd" xmlns:xlink="http://www.w3.org/1999/xlink">
<g><path style="opacity:0.984" fill="#000000" d="M 153.5,-0.5 C 161.5,-0.5 169.5,-0.5 177.5,-0.5C 217.153,8.99493 238.153,34.1616 240.5,75C 239.866,107.608 224.866,130.942 195.5,145C 189.668,147.277 183.668,148.944 177.5,150C 196.5,150.333 215.5,150.667 234.5,151C 242.264,152.55 249.264,155.717 255.5,160.5C 261.736,155.717 268.736,152.55 276.5,151C 295.5,150.667 314.5,150.333 333.5,150C 301.843,143.344 281.343,124.511 272,93.5C 265.579,56.5236 278.079,28.0236 309.5,8C 317.296,4.237 325.296,1.40367 333.5,-0.5C 341.5,-0.5 349.5,-0.5 357.5,-0.5C 397.153,8.99493 418.153,34.1616 420.5,75C 419.866,107.608 404.866,130.942 375.5,145C 369.668,147.277 363.668,148.944 357.5,150C 405.106,150.662 441.273,171.162 466,211.5C 481.954,243.921 484.954,277.588 475,312.5C 460.407,360.76 429.573,393.927 382.5,412C 362.046,419.682 341.046,422.016 319.5,419C 304.217,411.602 298.05,399.435 301,382.5C 303.67,372.497 309.837,365.664 319.5,362C 330.837,360.443 342.17,358.777 353.5,357C 382.105,348.127 402.272,329.961 414,302.5C 418.783,290.585 420.45,278.252 419,265.5C 413.718,256.17 406.218,254.004 396.5,259C 394.383,260.731 392.883,262.898 392,265.5C 391.047,299.625 374.214,321.125 341.5,330C 336.79,330.52 332.123,330.854 327.5,331C 319.642,312.485 305.642,302.485 285.5,301C 275.833,300.667 266.167,300.333 256.5,300C 287.392,297.107 306.559,280.607 314,250.5C 316.994,216.642 302.494,194.142 270.5,183C 237.667,177.165 214.167,189.332 200,219.5C 190.831,251.978 200.664,276.812 229.5,294C 237.418,297.73 245.751,299.73 254.5,300C 244.833,300.333 235.167,300.667 225.5,301C 205.358,302.485 191.358,312.485 183.5,331C 155.537,330.7 135.704,317.867 124,292.5C 121.38,283.683 119.713,274.683 119,265.5C 113.718,256.17 106.218,254.004 96.5,259C 94.3834,260.731 92.8834,262.898 92,265.5C 91.0845,305.178 108.251,334.012 143.5,352C 157.915,357.816 172.915,360.816 188.5,361C 205.844,367.509 213.011,380.009 210,398.5C 206.833,409.667 199.667,416.833 188.5,420C 131.167,422.084 86.334,399.584 54,352.5C 30.0231,313.996 24.3564,272.996 37,229.5C 52.6972,189.136 81.5305,163.636 123.5,153C 133.405,151.116 143.405,150.116 153.5,150C 121.843,143.344 101.343,124.511 92,93.5C 85.5789,56.5236 98.0789,28.0236 129.5,8C 137.296,4.237 145.296,1.40367 153.5,-0.5 Z"/></g>
<g><path style="opacity:0.967" fill="#000000" d="M 247.5,210.5 C 274.645,208.811 287.145,221.478 285,248.5C 278.491,265.844 265.991,273.011 247.5,270C 230.156,263.491 222.989,250.991 226,232.5C 229.35,221.318 236.517,213.984 247.5,210.5 Z"/></g>
<g><path style="opacity:0.985" fill="#000000" d="M 300.5,511.5 C 270.5,511.5 240.5,511.5 210.5,511.5C 210.333,488.164 210.5,464.831 211,441.5C 239.234,421.116 246.568,394.782 233,362.5C 227.182,353.352 220.015,345.519 211.5,339C 212.82,335.013 215.487,332.346 219.5,331C 243.5,330.333 267.5,330.333 291.5,331C 295.513,332.346 298.18,335.013 299.5,339C 272.599,359.05 265.099,384.883 277,416.5C 282.57,426.738 290.237,435.071 300,441.5C 300.5,464.831 300.667,488.164 300.5,511.5 Z"/></g>
<g><path style="opacity:0.99" fill="#000000" d="M 180.5,511.5 C 143.5,511.5 106.5,511.5 69.5,511.5C 65.5212,509.685 62.6878,506.685 61,502.5C 60.3333,469.5 60.3333,436.5 61,403.5C 94.607,433.537 134.107,449.037 179.5,450C 180.493,470.424 180.827,490.924 180.5,511.5 Z"/></g>
<g><path style="opacity:0.99" fill="#000000" d="M 441.5,511.5 C 404.5,511.5 367.5,511.5 330.5,511.5C 330.173,490.924 330.507,470.424 331.5,450C 376.597,448.975 416.097,433.808 450,404.5C 450.667,437.167 450.667,469.833 450,502.5C 448.312,506.685 445.479,509.685 441.5,511.5 Z"/></g>
</svg>
