<?xml version="1.0" encoding="UTF-8"?>
<!DOCTYPE svg PUBLIC "-//W3C//DTD SVG 1.1//EN" "http://www.w3.org/Graphics/SVG/1.1/DTD/svg11.dtd">
<svg xmlns="http://www.w3.org/2000/svg" version="1.1" width="512px" height="512px" style="shape-rendering:geometricPrecision; text-rendering:geometricPrecision; image-rendering:optimizeQuality; fill-rule:evenodd; clip-rule:evenodd" xmlns:xlink="http://www.w3.org/1999/xlink">
<g><path style="opacity:0.938" fill="#000000" d="M 4.5,-0.5 C 7.83333,-0.5 11.1667,-0.5 14.5,-0.5C 39.47,22.9672 64.6367,46.3005 90,69.5C 101.5,58 113,46.5 124.5,35C 128.937,32.1012 133.603,31.7678 138.5,34C 142.143,38.9082 144.643,44.4082 146,50.5C 157.805,88.0822 169.305,125.749 180.5,163.5C 178.369,173.096 172.702,175.929 163.5,172C 149.667,158.167 135.833,144.333 122,130.5C 113.47,139.364 104.637,147.864 95.5,156C 92.5,156.667 89.5,156.667 86.5,156C 56.7587,137.722 27.7587,118.556 -0.5,98.5C -0.5,95.5 -0.5,92.5 -0.5,89.5C 2.64702,84.1014 7.31368,82.268 13.5,84C 38.8404,99.6683 63.8404,115.835 88.5,132.5C 96.9858,124.514 105.319,116.348 113.5,108C 118.303,104.169 123.303,103.836 128.5,107C 134.344,113.374 140.344,118.874 146.5,123.5C 140.285,103.358 133.785,83.3576 127,63.5C 116.804,74.0301 106.304,84.1968 95.5,94C 92.5,94.6667 89.5,94.6667 86.5,94C 84.1667,92.3333 81.8333,90.6667 79.5,89C 52.6103,64.2724 25.9436,39.439 -0.5,14.5C -0.5,11.1667 -0.5,7.83333 -0.5,4.5C 1.16667,2.83333 2.83333,1.16667 4.5,-0.5 Z"/></g>
<g><path style="opacity:0.948" fill="#000000" d="M 433.5,-0.5 C 436.833,-0.5 440.167,-0.5 443.5,-0.5C 449.125,4.71447 449.959,10.7145 446,17.5C 435,30.5 424,43.5 413,56.5C 402.159,69.3377 388.326,76.5044 371.5,78C 342.5,78.3333 313.5,78.6667 284.5,79C 273.878,84.2804 265.045,91.7804 258,101.5C 256.133,105.466 254.967,109.633 254.5,114C 255.544,121.854 256.711,129.687 258,137.5C 259.333,140.167 260.667,142.833 262,145.5C 280.014,163.681 298.181,181.681 316.5,199.5C 323.959,191.607 326.459,182.273 324,171.5C 322.81,166.787 320.81,162.453 318,158.5C 312,152.5 306,146.5 300,140.5C 297.107,133.988 298.607,128.821 304.5,125C 311.526,124.836 318.526,125.336 325.5,126.5C 335.657,126.585 344.323,123.085 351.5,116C 363.795,114.435 368.295,119.602 365,131.5C 357.09,140.206 347.256,145.373 335.5,147C 343.58,158.149 346.914,170.649 345.5,184.5C 367.364,186.031 379.364,197.697 381.5,219.5C 395.927,219.965 406.427,226.631 413,239.5C 423.578,228.028 431.912,215.028 438,200.5C 445.076,178.938 452.742,157.605 461,136.5C 466.08,130.84 471.913,130.007 478.5,134C 479.954,136.473 480.954,139.139 481.5,142C 473.545,161.864 466.378,182.03 460,202.5C 452.714,221.753 442.381,239.087 429,254.5C 416.5,267 404,279.5 391.5,292C 372.815,303.745 355.981,301.578 341,285.5C 339.103,282.873 337.603,280.039 336.5,277C 319.843,282.129 305.677,278.295 294,265.5C 291.155,261.31 288.988,256.81 287.5,252C 266.609,254.141 252.775,245.308 246,225.5C 245.194,219.916 245.361,214.416 246.5,209C 226.537,202.931 217.703,189.431 220,168.5C 220.91,163.349 222.91,158.682 226,154.5C 230.214,150.622 234.048,146.455 237.5,142C 234.384,129.265 233.551,116.431 235,103.5C 236.662,96.5096 239.662,90.1763 244,84.5C 249.5,79 255,73.5 260.5,68C 267.078,63.0448 274.412,59.7115 282.5,58C 311.5,57.6667 340.5,57.3333 369.5,57C 376.015,56.5381 382.015,54.5381 387.5,51C 392.613,45.8874 397.779,40.7208 403,35.5C 413.031,23.3088 423.198,11.3088 433.5,-0.5 Z M 247.5,162.5 C 254.577,168.071 261.244,174.238 267.5,181C 258.951,190.647 250.451,190.814 242,181.5C 240.632,178.262 240.299,174.928 241,171.5C 242.611,168.062 244.777,165.062 247.5,162.5 Z M 281.5,196.5 C 288.577,202.071 295.244,208.238 301.5,215C 296.833,219.667 292.167,224.333 287.5,229C 275.941,233.553 268.941,229.72 266.5,217.5C 266.466,214.567 267.299,211.9 269,209.5C 273.37,205.298 277.537,200.964 281.5,196.5 Z M 344.5,205.5 C 353.485,205.992 358.818,210.659 360.5,219.5C 359.964,221.942 359.131,224.275 358,226.5C 348.465,237.702 337.965,247.869 326.5,257C 311.954,258.122 306.454,251.622 310,237.5C 318.469,228.03 327.303,218.863 336.5,210C 339.099,208.205 341.766,206.705 344.5,205.5 Z M 380.5,239.5 C 391.52,241.873 395.687,248.54 393,259.5C 387.389,267.116 380.555,273.282 372.5,278C 362.828,279.003 357.162,274.67 355.5,265C 355.796,263.112 356.296,261.278 357,259.5C 362.134,253.365 367.634,247.531 373.5,242C 375.927,241.098 378.26,240.264 380.5,239.5 Z"/></g>
<g><path style="opacity:0.897" fill="#000000" d="M 511.5,107.5 C 511.5,110.5 511.5,113.5 511.5,116.5C 506.065,123.395 499.898,124.062 493,118.5C 488.936,106.577 493.102,101.077 505.5,102C 508.023,103.36 510.023,105.193 511.5,107.5 Z"/></g>
<g><path style="opacity:0.943" fill="#000000" d="M 115.5,511.5 C 112.5,511.5 109.5,511.5 106.5,511.5C 101.101,508.353 99.268,503.686 101,497.5C 108.705,486.121 117.539,475.621 127.5,466C 132.334,462.748 137.334,459.748 142.5,457C 159.092,451.136 175.759,445.469 192.5,440C 210.583,433.131 226.916,423.465 241.5,411C 254.065,399.105 265.898,386.605 277,373.5C 278.68,360.847 273.18,355.014 260.5,356C 257.567,357.271 254.901,358.938 252.5,361C 245.179,363.895 240.012,361.728 237,354.5C 236.416,351.743 236.75,349.077 238,346.5C 243,341.5 248,336.5 253,331.5C 260.187,321.063 258.021,313.23 246.5,308C 244.833,307.333 243.167,307.333 241.5,308C 237.6,309.565 233.934,311.565 230.5,314C 219.502,315.333 215.002,310.5 217,299.5C 220.632,294.866 224.632,290.533 229,286.5C 233.391,275.282 229.725,267.949 218,264.5C 215.005,265.276 212.172,266.443 209.5,268C 205.167,272.333 200.833,276.667 196.5,281C 183.254,284.754 178.088,279.92 181,266.5C 187.025,260.62 188.025,253.953 184,246.5C 179.772,241.913 174.606,240.413 168.5,242C 152.862,256.638 137.529,271.638 122.5,287C 110.399,292.538 104.566,288.705 105,275.5C 111.135,268.364 117.635,261.531 124.5,255C 115.142,252.112 106.476,253.446 98.5,259C 94,263.5 89.5,268 85,272.5C 82.2235,275.718 80.2235,279.385 79,283.5C 78.6667,314.5 78.3333,345.5 78,376.5C 77.0615,383.649 74.7282,390.315 71,396.5C 66.5334,401.968 61.7,407.135 56.5,412C 42.5,424 28.5,436 14.5,448C 8.34233,449.746 3.34233,448.246 -0.5,443.5C -0.5,440.167 -0.5,436.833 -0.5,433.5C 13.9989,420.503 28.6656,407.67 43.5,395C 50.6509,389.853 55.1509,383.019 57,374.5C 57.036,341.794 57.7027,309.127 59,276.5C 61.221,270.39 64.221,264.723 68,259.5C 73.5,254 79,248.5 84.5,243C 95.1272,234.792 107.127,231.458 120.5,233C 128.09,233.885 135.59,235.052 143,236.5C 157.537,218.896 174.704,215.73 194.5,227C 200.215,232.366 204.715,238.533 208,245.5C 227.01,241.672 241.01,248.338 250,265.5C 252.227,272.779 253.06,280.113 252.5,287.5C 275.092,296.251 282.759,312.251 275.5,335.5C 297.401,346.021 303.901,362.687 295,385.5C 278.465,405.035 260.299,422.868 240.5,439C 230.239,446.238 219.239,452.238 207.5,457C 189.908,463.197 172.241,469.197 154.5,475C 146.526,478.236 139.692,483.069 134,489.5C 128.043,497.13 121.876,504.463 115.5,511.5 Z"/></g>
<g><path style="opacity:0.938" fill="#000000" d="M 511.5,496.5 C 511.5,499.833 511.5,503.167 511.5,506.5C 509.833,508.167 508.167,509.833 506.5,511.5C 503.167,511.5 499.833,511.5 496.5,511.5C 471.561,485.056 446.728,458.39 422,431.5C 416.046,425.896 415.046,419.562 419,412.5C 428.5,403 438,393.5 447.5,384C 427.366,376.843 407.032,370.51 386.5,365C 392.333,370.833 398.167,376.667 404,382.5C 407.164,387.697 406.831,392.697 403,397.5C 394.652,405.681 386.486,414.014 378.5,422.5C 395.165,447.16 411.332,472.16 427,497.5C 428.732,503.686 426.899,508.353 421.5,511.5C 418.5,511.5 415.5,511.5 412.5,511.5C 392.444,483.241 373.278,454.241 355,424.5C 353.925,420.142 354.592,416.142 357,412.5C 364.833,404.667 372.667,396.833 380.5,389C 366.667,375.167 352.833,361.333 339,347.5C 334.856,338.463 337.689,332.796 347.5,330.5C 389.252,343.028 430.918,355.861 472.5,369C 479.062,373.599 480.229,379.432 476,386.5C 464.5,398 453,409.5 441.5,421C 464.7,446.363 488.033,471.53 511.5,496.5 Z"/></g>
</svg>
