<?xml version="1.0" standalone="no"?>
<!DOCTYPE svg PUBLIC "-//W3C//DTD SVG 20010904//EN"
 "http://www.w3.org/TR/2001/REC-SVG-20010904/DTD/svg10.dtd">
<svg version="1.0" xmlns="http://www.w3.org/2000/svg"
 width="50.000000pt" height="50.000000pt" viewBox="0 0 50.000000 50.000000"
 preserveAspectRatio="xMidYMid meet">

<g transform="translate(0.000000,50.000000) scale(0.100000,-0.100000)"
fill="#f5f5f5" stroke="none">
<path d="M170 470 c0 -5 -7 -10 -15 -10 -8 0 -15 -4 -15 -10 0 -5 -12 -10 -26
-10 -28 0 -54 -21 -54 -43 0 -9 -6 -18 -12 -21 -10 -5 -10 -7 0 -12 15 -7 16
-24 1 -24 -21 0 -39 -29 -39 -65 0 -28 7 -44 30 -65 32 -30 37 -40 19 -40 -19
0 -39 -28 -39 -55 0 -35 22 -55 59 -55 17 0 31 -4 31 -10 0 -5 17 -10 38 -10
26 0 42 6 52 20 8 11 20 20 26 20 7 0 15 6 18 13 5 9 7 9 12 0 3 -7 11 -13 18
-13 6 0 18 -9 26 -20 10 -14 26 -20 52 -20 21 0 38 5 38 10 0 6 14 10 31 10
37 0 59 20 59 55 0 27 -20 55 -39 55 -18 0 -13 10 19 40 23 21 30 37 30 65 0
36 -18 65 -39 65 -15 0 -14 17 2 24 10 5 10 7 0 12 -7 3 -13 12 -13 21 0 22
-26 43 -54 43 -14 0 -26 5 -26 10 0 6 -7 10 -15 10 -8 0 -15 5 -15 10 0 18
-42 10 -61 -12 l-19 -21 -19 21 c-19 22 -61 30 -61 12z m56 -24 c21 -21 17
-46 -6 -46 -11 0 -20 -4 -20 -10 0 -14 -28 -12 -33 3 -2 7 -8 8 -13 3 -5 -5
-4 -11 4 -13 19 -7 14 -23 -7 -23 -11 0 -22 -6 -25 -12 -5 -10 -7 -10 -12 0
-3 6 -17 12 -30 12 -13 0 -24 5 -24 10 0 6 5 10 10 10 6 0 10 9 10 20 0 16 7
20 30 20 17 0 30 5 30 10 0 6 7 10 15 10 8 0 15 5 15 10 0 15 39 12 56 -4z
m104 4 c0 -5 7 -10 15 -10 8 0 15 -4 15 -10 0 -5 14 -10 30 -10 23 0 30 -4 30
-20 0 -11 5 -20 10 -20 6 0 10 -4 10 -10 0 -5 -11 -10 -24 -10 -13 0 -27 -6
-30 -12 -5 -10 -7 -10 -12 0 -3 6 -14 12 -25 12 -21 0 -26 16 -6 23 7 2 8 8 3
13 -5 5 -11 4 -13 -3 -5 -15 -33 -17 -33 -3 0 6 -9 10 -20 10 -23 0 -27 23 -7
45 14 16 57 20 57 5z m-30 -80 c0 -5 7 -10 15 -10 8 0 15 -4 15 -10 0 -5 9
-10 20 -10 18 0 20 -7 20 -60 0 -51 -4 -65 -25 -85 -21 -22 -33 -25 -95 -25
-62 0 -74 3 -95 25 -21 20 -25 34 -25 85 0 53 2 60 20 60 11 0 20 5 20 10 0 6
7 10 15 10 8 0 15 5 15 10 0 6 23 10 50 10 28 0 50 -4 50 -10z m-190 -65 c0
-19 -4 -35 -10 -35 -5 0 -10 5 -10 10 0 6 -9 10 -20 10 -11 0 -20 -4 -20 -10
0 -5 7 -10 16 -10 20 0 44 -24 44 -44 0 -20 -46 -21 -66 -2 -20 20 -19 96 1
96 8 0 15 5 15 10 0 6 11 10 25 10 22 0 25 -4 25 -35z m330 25 c0 -5 7 -10 15
-10 20 0 21 -76 1 -96 -20 -19 -66 -18 -66 2 0 20 24 44 44 44 9 0 16 5 16 10
0 6 -9 10 -20 10 -11 0 -20 -4 -20 -10 0 -5 -4 -10 -10 -10 -5 0 -10 16 -10
35 0 31 3 35 25 35 14 0 25 -4 25 -10z m-283 -155 c14 -14 13 -18 -6 -34 -22
-19 -28 -41 -11 -41 6 0 10 5 10 11 0 20 29 39 59 39 26 0 31 -4 31 -25 0 -14
-6 -25 -13 -25 -7 0 -19 -9 -27 -20 -10 -14 -26 -20 -52 -20 -21 0 -38 5 -38
10 0 6 -16 10 -35 10 -33 0 -35 2 -35 35 0 22 5 35 13 35 7 0 19 9 27 20 17
24 55 26 77 5z m263 -5 c8 -11 20 -20 27 -20 8 0 13 -13 13 -35 0 -33 -2 -35
-35 -35 -19 0 -35 -4 -35 -10 0 -5 -17 -10 -38 -10 -26 0 -42 6 -52 20 -8 11
-20 20 -27 20 -7 0 -13 11 -13 25 0 21 5 25 31 25 30 0 59 -19 59 -39 0 -6 5
-11 10 -11 17 0 11 22 -11 41 -18 15 -19 20 -7 33 19 22 61 20 78 -4z"/>
<path d="M210 310 c0 -11 5 -20 10 -20 6 0 10 9 10 20 0 11 -4 20 -10 20 -5 0
-10 -9 -10 -20z"/>
<path d="M270 310 c0 -11 5 -20 10 -20 6 0 10 9 10 20 0 11 -4 20 -10 20 -5 0
-10 -9 -10 -20z"/>
<path d="M180 244 c0 -17 34 -34 70 -34 40 0 80 23 65 38 -4 4 -10 1 -12 -5
-6 -16 -103 -18 -103 -3 0 6 -4 10 -10 10 -5 0 -10 -3 -10 -6z"/>
</g>
</svg>
