<?xml version="1.0" encoding="UTF-8"?>
<!DOCTYPE svg PUBLIC "-//W3C//DTD SVG 1.1//EN" "http://www.w3.org/Graphics/SVG/1.1/DTD/svg11.dtd">
<svg xmlns="http://www.w3.org/2000/svg" version="1.1" width="512px" height="512px" style="shape-rendering:geometricPrecision; text-rendering:geometricPrecision; image-rendering:optimizeQuality; fill-rule:evenodd; clip-rule:evenodd" xmlns:xlink="http://www.w3.org/1999/xlink">
<g><path style="opacity:0.936" fill="#f5f5f5" d="M 235.5,-0.5 C 248.833,-0.5 262.167,-0.5 275.5,-0.5C 358.925,10.7658 417.092,55.0992 450,132.5C 466.784,136.953 473.118,147.619 469,164.5C 466.195,168.437 463.695,172.437 461.5,176.5C 469.449,237.223 454.449,291.39 416.5,339C 420.96,350.046 418.627,359.38 409.5,367C 402.414,371.008 395.08,371.508 387.5,368.5C 376.582,376.607 365.582,384.44 354.5,392C 355.586,396.792 355.753,401.625 355,406.5C 353.016,412.397 350.349,417.73 347,422.5C 353.667,429.167 360.333,435.833 367,442.5C 374.219,438.447 381.386,438.613 388.5,443C 392.667,447.167 396.833,451.333 401,455.5C 404.333,461.167 404.333,466.833 401,472.5C 387.938,485.729 374.772,498.729 361.5,511.5C 357.833,511.5 354.167,511.5 350.5,511.5C 343.527,506.693 337.694,500.693 333,493.5C 332.023,490.759 331.523,487.925 331.5,485C 331.645,481.348 332.145,477.848 333,474.5C 326.333,467.833 319.667,461.167 313,454.5C 305.198,462.765 295.698,465.599 284.5,463C 275.906,459.744 269.073,454.244 264,446.5C 262.668,441.447 263.835,437.114 267.5,433.5C 263.792,429.79 259.792,426.457 255.5,423.5C 251.208,426.457 247.208,429.79 243.5,433.5C 247.165,437.114 248.332,441.447 247,446.5C 236.595,463.08 222.429,467.58 204.5,460C 202.04,458.542 199.873,456.709 198,454.5C 191.333,461.167 184.667,467.833 178,474.5C 178.855,477.848 179.355,481.348 179.5,485C 179.595,490.049 178.095,494.549 175,498.5C 170.568,503.44 165.735,507.773 160.5,511.5C 156.833,511.5 153.167,511.5 149.5,511.5C 136.228,498.729 123.062,485.729 110,472.5C 107.095,467.349 106.762,462.015 109,456.5C 113.5,452 118,447.5 122.5,443C 129.614,438.613 136.781,438.447 144,442.5C 150.667,435.833 157.333,429.167 164,422.5C 160.651,417.73 157.984,412.397 156,406.5C 155.495,401.116 155.495,395.782 156,390.5C 144.734,383.785 133.901,376.452 123.5,368.5C 105.711,373.614 95.3772,367.114 92.5,349C 92.3571,345.465 93.0237,342.132 94.5,339C 80.0443,321.848 68.8777,302.681 61,281.5C 42.1905,276.214 36.5238,264.548 44,246.5C 47.3604,244.332 49.1937,241.332 49.5,237.5C 44.3753,201.24 48.3753,166.073 61.5,132C 55.4314,123.195 54.9314,114.028 60,104.5C 65.0535,98.476 71.5535,95.3093 79.5,95C 84.1223,88.922 88.6223,82.7553 93,76.5C 100.322,71.7436 105.155,73.5769 107.5,82C 107.375,83.6268 106.875,85.1268 106,86.5C 101.973,91.6938 98.1395,97.0272 94.5,102.5C 95.6351,104.799 96.9684,106.966 98.5,109C 116.509,109.833 134.509,109.666 152.5,108.5C 155.885,102.781 160.552,98.4481 166.5,95.5C 174.523,67.9419 187.857,43.4419 206.5,22C 178.323,28.9218 153.323,41.9218 131.5,61C 126.441,65.8104 121.608,65.6438 117,60.5C 116.183,57.0357 116.517,53.7024 118,50.5C 151.879,21.3717 191.046,4.37173 235.5,-0.5 Z M 243.5,16.5 C 244.833,16.5 246.167,16.5 247.5,16.5C 247.5,47.5 247.5,78.5 247.5,109.5C 229.155,109.833 210.821,109.5 192.5,108.5C 190.698,103.532 187.365,100.032 182.5,98C 189.079,79.0092 197.912,61.1758 209,44.5C 218.005,31.9855 229.505,22.6522 243.5,16.5 Z M 263.5,16.5 C 274.899,19.3885 284.733,25.0552 293,33.5C 297.786,38.9103 301.952,44.7436 305.5,51C 299.1,68.5921 304.934,79.7588 323,84.5C 326.33,92.3218 329.163,100.322 331.5,108.5C 308.843,109.5 286.176,109.833 263.5,109.5C 263.5,78.5 263.5,47.5 263.5,16.5 Z M 304.5,22.5 C 354.624,35.4513 393.29,64.2847 420.5,109C 396.5,109.667 372.5,109.667 348.5,109C 345.673,99.0194 342.34,89.1861 338.5,79.5C 347.631,70.1116 348.798,59.7782 342,48.5C 335.544,42.1234 327.71,39.2901 318.5,40C 314.174,33.8232 309.508,27.9898 304.5,22.5 Z M 322.5,56.5 C 330.294,57.2516 331.961,60.7516 327.5,67C 321.703,68.5256 318.87,66.3589 319,60.5C 319.69,58.6498 320.856,57.3164 322.5,56.5 Z M 76.5,111.5 C 82.7707,112.374 84.604,115.707 82,121.5C 75.0355,124.505 72.0355,122.172 73,114.5C 74.1451,113.364 75.3117,112.364 76.5,111.5 Z M 171.5,111.5 C 177.259,112.022 179.259,115.022 177.5,120.5C 172.647,124.597 168.981,123.597 166.5,117.5C 167.497,114.845 169.164,112.845 171.5,111.5 Z M 98.5,125.5 C 116.512,125.167 134.512,125.5 152.5,126.5C 153.757,128.679 155.257,130.679 157,132.5C 153.666,154.675 151.499,177.009 150.5,199.5C 121.5,199.5 92.5,199.5 63.5,199.5C 64.2143,179.547 68.0477,160.214 75,141.5C 81.0972,139.837 86.9305,137.337 92.5,134C 94.8785,131.401 96.8785,128.567 98.5,125.5 Z M 192.5,125.5 C 210.833,125.5 229.167,125.5 247.5,125.5C 247.5,150.167 247.5,174.833 247.5,199.5C 220.492,199.833 193.492,199.5 166.5,198.5C 167.418,178.743 169.418,159.076 172.5,139.5C 182.272,139.034 188.938,134.368 192.5,125.5 Z M 263.5,125.5 C 287.509,125.167 311.509,125.5 335.5,126.5C 340.386,146.585 342.719,166.919 342.5,187.5C 337.64,190.193 333.973,194.026 331.5,199C 308.836,199.5 286.169,199.667 263.5,199.5C 263.5,174.833 263.5,150.167 263.5,125.5 Z M 352.5,125.5 C 378.169,125.333 403.835,125.5 429.5,126C 431.434,129.87 433.1,133.87 434.5,138C 426.605,147.339 425.438,157.506 431,168.5C 434.774,173.136 439.608,175.803 445.5,176.5C 446.313,184.153 446.98,191.819 447.5,199.5C 422.491,199.833 397.491,199.5 372.5,198.5C 369.475,193.308 365.308,189.308 360,186.5C 358.558,166.024 356.058,145.691 352.5,125.5 Z M 446.5,149.5 C 453.463,149.765 455.63,153.098 453,159.5C 446.035,162.505 443.035,160.172 444,152.5C 445.045,151.627 445.878,150.627 446.5,149.5 Z M 349.5,201.5 C 357.302,201.787 359.302,205.287 355.5,212C 346.412,212.426 344.412,208.926 349.5,201.5 Z M 63.5,215.5 C 92.5077,215.167 121.508,215.5 150.5,216.5C 151.628,240.654 154.295,264.654 158.5,288.5C 132.831,288.667 107.165,288.5 81.5,288C 79.4496,284.519 77.783,280.852 76.5,277C 82.9277,270.038 85.0944,261.871 83,252.5C 80.3889,243.721 74.5556,238.721 65.5,237.5C 64.7014,230.181 64.0347,222.847 63.5,215.5 Z M 166.5,215.5 C 193.5,215.5 220.5,215.5 247.5,215.5C 249.137,221.889 247.137,226.389 241.5,229C 230.833,240.333 230.833,251.667 241.5,263C 243.333,264.167 245.167,265.333 247,266.5C 247.667,271.167 247.667,275.833 247,280.5C 246.052,278.43 244.552,276.93 242.5,276C 235.167,275.333 227.833,275.333 220.5,276C 216.788,278.513 215.622,282.013 217,286.5C 217.465,287.931 218.299,289.097 219.5,290C 224.75,291.174 230.084,291.841 235.5,292C 260,321.833 284.5,351.667 309,381.5C 310.919,383.691 312.253,386.024 313,388.5C 309.833,391.667 306.667,394.833 303.5,398C 302.833,398.667 302.167,398.667 301.5,398C 275.167,371.667 248.833,345.333 222.5,319C 211.981,316.186 208.147,320.019 211,330.5C 237.333,356.833 263.667,383.167 290,409.5C 290.667,410.167 290.667,410.833 290,411.5C 286.833,414.667 283.667,417.833 280.5,421C 278.721,420.956 277.055,420.289 275.5,419C 244.979,393.644 214.312,368.478 183.5,343.5C 182.5,326.179 182.167,308.846 182.5,291.5C 188.801,292.686 193.634,290.686 197,285.5C 197.959,281.579 196.792,278.412 193.5,276C 186.508,275.5 179.508,275.334 172.5,275.5C 169.477,255.583 167.477,235.583 166.5,215.5 Z M 263.5,215.5 C 286.51,215.167 309.51,215.5 332.5,216.5C 334.51,221.588 338.01,225.255 343,227.5C 341.346,237.762 345.513,241.929 355.5,240C 358.721,236.53 360.388,232.364 360.5,227.5C 365.971,225.196 369.971,221.363 372.5,216C 397.498,215.5 422.498,215.333 447.5,215.5C 446.385,240.92 440.385,265.086 429.5,288C 403.835,288.5 378.169,288.667 352.5,288.5C 353.497,281.845 354.497,275.178 355.5,268.5C 355.693,263.024 353.027,260.024 347.5,259.5C 343.963,260.203 341.463,262.203 340,265.5C 339.174,268.793 338.674,272.126 338.5,275.5C 315.164,275.333 291.831,275.5 268.5,276C 266.448,276.93 264.948,278.43 264,280.5C 263.333,275.833 263.333,271.167 264,266.5C 276.383,259.316 280.05,248.982 275,235.5C 272.283,231.116 268.616,227.782 264,225.5C 263.502,222.183 263.335,218.85 263.5,215.5 Z M 252.5,240.5 C 257.406,239.306 260.406,241.139 261.5,246C 259.516,251.747 256.016,252.913 251,249.5C 249.058,246.141 249.558,243.141 252.5,240.5 Z M 59.5,253.5 C 67.168,253.507 69.168,256.84 65.5,263.5C 59.1974,265.363 56.3641,263.03 57,256.5C 58.045,255.627 58.8783,254.627 59.5,253.5 Z M 275.5,291.5 C 293.167,291.5 310.833,291.5 328.5,291.5C 328.833,308.846 328.5,326.179 327.5,343.5C 321.811,348.357 315.978,353.023 310,357.5C 304.5,350.667 299,343.833 293.5,337C 296.372,334.463 298.872,331.63 301,328.5C 301.772,318.962 297.605,315.795 288.5,319C 286.667,320.833 284.833,322.667 283,324.5C 277.309,317.644 271.809,310.644 266.5,303.5C 269.524,299.482 272.524,295.482 275.5,291.5 Z M 90.5,304.5 C 114.502,304.333 138.502,304.5 162.5,305C 163.859,308.746 165.026,312.579 166,316.5C 166.064,328.238 166.73,339.904 168,351.5C 175.408,357.786 182.908,363.953 190.5,370C 188.088,376.23 184.754,376.897 180.5,372C 174.397,370.426 169.564,372.26 166,377.5C 154.786,371.108 144.286,363.774 134.5,355.5C 137.531,338.903 130.698,329.237 114,326.5C 111.213,327.517 108.38,327.684 105.5,327C 99.6112,320.045 94.6112,312.545 90.5,304.5 Z M 348.5,304.5 C 372.509,304.167 396.509,304.5 420.5,305.5C 416.116,313.103 411.116,320.27 405.5,327C 395.805,325.472 387.305,327.972 380,334.5C 375.601,340.928 374.434,347.928 376.5,355.5C 366.714,363.774 356.214,371.108 345,377.5C 339.125,370.369 332.625,369.702 325.5,375.5C 323.308,374.141 321.641,372.308 320.5,370C 326.833,365 333.167,360 339.5,355C 341.81,353.363 343.31,351.196 344,348.5C 344.333,337.833 344.667,327.167 345,316.5C 346.078,312.437 347.245,308.437 348.5,304.5 Z M 113.5,342.5 C 118.366,343.556 120.2,346.556 119,351.5C 114.186,356.005 110.686,355.171 108.5,349C 108.645,345.497 110.312,343.33 113.5,342.5 Z M 396.5,342.5 C 401.366,343.556 403.2,346.556 402,351.5C 397.186,356.005 393.686,355.171 391.5,349C 391.645,345.497 393.312,343.33 396.5,342.5 Z M 202.5,380.5 C 207.132,383.798 211.466,387.464 215.5,391.5C 213.5,394.167 211.167,396.5 208.5,398.5C 204.5,395.167 200.833,391.5 197.5,387.5C 199.58,385.427 201.246,383.093 202.5,380.5 Z M 175.5,390.5 C 193.415,406.913 210.915,423.913 228,441.5C 226.917,445.904 223.917,447.904 219,447.5C 216.7,447.506 214.534,447.006 212.5,446C 199.667,433.167 186.833,420.333 174,407.5C 170.412,401.453 170.912,395.786 175.5,390.5 Z M 333.5,390.5 C 339.965,394.851 341.132,400.518 337,407.5C 324.5,420 312,432.5 299.5,445C 295.063,447.899 290.397,448.232 285.5,446C 283.671,444.887 282.837,443.387 283,441.5C 300.035,424.632 316.868,407.632 333.5,390.5 Z M 228.5,401.5 C 233.293,405.121 237.96,408.954 242.5,413C 238.976,416.025 235.309,418.858 231.5,421.5C 227.5,418.167 223.833,414.5 220.5,410.5C 223.189,407.48 225.856,404.48 228.5,401.5 Z M 175.5,433.5 C 179.415,435.743 182.749,438.743 185.5,442.5C 179.167,449.5 172.5,456.167 165.5,462.5C 162.167,459.833 159.167,456.833 156.5,453.5C 162.855,446.813 169.188,440.146 175.5,433.5 Z M 333.5,433.5 C 341.091,439.421 348.091,446.088 354.5,453.5C 351.833,456.833 348.833,459.833 345.5,462.5C 338.5,456.167 331.833,449.5 325.5,442.5C 328.189,439.48 330.856,436.48 333.5,433.5 Z M 132.5,455.5 C 133.552,455.351 134.552,455.517 135.5,456C 144.667,465.167 153.833,474.333 163,483.5C 163.667,484.833 163.667,486.167 163,487.5C 160.609,490.597 157.776,492.763 154.5,494C 144.5,484 134.5,474 124.5,464C 127.371,461.297 130.038,458.464 132.5,455.5 Z M 375.5,455.5 C 379.812,457.289 383.479,460.123 386.5,464C 376.5,474 366.5,484 356.5,494C 353.224,492.763 350.391,490.597 348,487.5C 347.333,486.167 347.333,484.833 348,483.5C 357.369,474.298 366.536,464.965 375.5,455.5 Z"/></g>
</svg>
