<?xml version="1.0" encoding="UTF-8"?>
<!DOCTYPE svg PUBLIC "-//W3C//DTD SVG 1.1//EN" "http://www.w3.org/Graphics/SVG/1.1/DTD/svg11.dtd">
<svg xmlns="http://www.w3.org/2000/svg" version="1.1" width="512px" height="512px" style="shape-rendering:geometricPrecision; text-rendering:geometricPrecision; image-rendering:optimizeQuality; fill-rule:evenodd; clip-rule:evenodd" xmlns:xlink="http://www.w3.org/1999/xlink">
<g><path style="opacity:0.864" fill="#000000" d="M 248.5,43.5 C 268.65,41.4828 277.483,50.4828 275,70.5C 269.657,81.7523 260.824,85.9189 248.5,83C 237.248,77.6574 233.081,68.8241 236,56.5C 238.353,50.3154 242.52,45.982 248.5,43.5 Z M 251.5,52.5 C 262.318,51.8169 267.151,56.8169 266,67.5C 262.96,73.6026 258.126,75.7693 251.5,74C 245.397,70.9596 243.231,66.1263 245,59.5C 246.694,56.6424 248.861,54.309 251.5,52.5 Z"/></g>
<g><path style="opacity:0.895" fill="#000000" d="M 219.5,45.5 C 226.325,45.2399 228.325,48.0733 225.5,54C 210.066,65.7662 197.9,80.2662 189,97.5C 178.692,118.257 170.859,139.923 165.5,162.5C 132.833,163.833 100.167,163.833 67.5,162.5C 66.5153,160.902 66.3486,159.235 67,157.5C 79.2046,133.622 95.5379,112.956 116,95.5C 118.744,97.6846 120.41,100.351 121,103.5C 103.87,118.285 89.7031,135.451 78.5,155C 105.165,155.5 131.831,155.667 158.5,155.5C 166.452,119.297 181.452,86.9635 203.5,58.5C 193.388,61.4748 183.555,65.1415 174,69.5C 172.247,66.9952 170.747,64.3286 169.5,61.5C 185.667,54.2977 202.334,48.9644 219.5,45.5 Z"/></g>
<g><path style="opacity:0.897" fill="#000000" d="M 286.5,45.5 C 313.315,48.9936 338.315,57.6603 361.5,71.5C 360.603,74.6574 358.769,76.9907 356,78.5C 340.02,69.5855 323.187,63.0855 305.5,59C 322.464,77.4114 334.964,98.5781 343,122.5C 346.948,133.294 350.115,144.294 352.5,155.5C 379.169,155.667 405.835,155.5 432.5,155C 424.358,141.882 415.358,129.382 405.5,117.5C 407.53,115.393 409.697,113.393 412,111.5C 424.638,125.437 435.305,140.77 444,157.5C 444.651,159.235 444.485,160.902 443.5,162.5C 410.833,163.833 378.167,163.833 345.5,162.5C 338.45,129.142 324.95,98.8088 305,71.5C 297.905,64.2366 290.739,57.2366 283.5,50.5C 284.065,48.4908 285.065,46.8241 286.5,45.5 Z"/></g>
<g><path style="opacity:0.864" fill="#000000" d="M 136.5,59.5 C 156.65,57.4828 165.483,66.4828 163,86.5C 157.657,97.7523 148.824,101.919 136.5,99C 125.248,93.6574 121.081,84.8241 124,72.5C 126.353,66.3154 130.52,61.982 136.5,59.5 Z M 139.5,68.5 C 150.318,67.8169 155.151,72.8169 154,83.5C 150.96,89.6026 146.126,91.7693 139.5,90C 133.397,86.9596 131.231,82.1263 133,75.5C 134.694,72.6424 136.861,70.309 139.5,68.5 Z"/></g>
<g><path style="opacity:0.914" fill="#000000" d="M 220.5,65.5 C 222.917,67.4111 225.25,69.5778 227.5,72C 211.819,88.1785 200.319,107.012 193,128.5C 190.064,137.141 187.231,145.808 184.5,154.5C 231.833,155.833 279.167,155.833 326.5,154.5C 320.232,130.505 310.399,108.171 297,87.5C 292.854,82.0527 288.354,76.8861 283.5,72C 285.684,69.9835 287.684,67.8169 289.5,65.5C 303.538,79.214 314.371,95.214 322,113.5C 327.464,127.227 332.131,141.227 336,155.5C 336.667,157.833 336.667,160.167 336,162.5C 282.571,163.664 229.071,163.831 175.5,163C 174.325,159.179 174.492,155.346 176,151.5C 182.049,128.073 191.382,106.073 204,85.5C 209.269,78.6183 214.769,71.9517 220.5,65.5 Z M 251.5,116.5 C 262.318,115.817 267.151,120.817 266,131.5C 262.96,137.603 258.126,139.769 251.5,138C 245.397,134.96 243.231,130.126 245,123.5C 246.694,120.642 248.861,118.309 251.5,116.5 Z"/></g>
<g><path style="opacity:0.864" fill="#000000" d="M 376.5,75.5 C 396.65,73.4828 405.483,82.4828 403,102.5C 397.657,113.752 388.824,117.919 376.5,115C 365.248,109.657 361.081,100.824 364,88.5C 366.353,82.3154 370.52,77.982 376.5,75.5 Z M 379.5,84.5 C 390.318,83.8169 395.151,88.8169 394,99.5C 390.96,105.603 386.126,107.769 379.5,106C 373.397,102.96 371.231,98.1263 373,91.5C 374.694,88.6424 376.861,86.309 379.5,84.5 Z"/></g>
<g><path style="opacity:0.864" fill="#000000" d="M 248.5,107.5 C 268.65,105.483 277.483,114.483 275,134.5C 269.657,145.752 260.824,149.919 248.5,147C 237.248,141.657 233.081,132.824 236,120.5C 238.353,114.315 242.52,109.982 248.5,107.5 Z M 251.5,116.5 C 248.861,118.309 246.694,120.642 245,123.5C 243.231,130.126 245.397,134.96 251.5,138C 258.126,139.769 262.96,137.603 266,131.5C 267.151,120.817 262.318,115.817 251.5,116.5 Z"/></g>
<g><path style="opacity:0.929" fill="#000000" d="M 60.5,171.5 C 94.4065,171.171 128.24,171.504 162,172.5C 162.5,173.5 163,174.5 163.5,175.5C 156.715,212.243 154.715,249.243 157.5,286.5C 154.609,287.678 151.609,288.345 148.5,288.5C 147.367,267.197 147.2,245.864 148,224.5C 148.851,209.692 150.684,195.025 153.5,180.5C 123.976,179.179 94.4758,179.179 65,180.5C 62.3708,179.791 59.8708,178.791 57.5,177.5C 58.5133,175.473 59.5133,173.473 60.5,171.5 Z"/></g>
<g><path style="opacity:0.934" fill="#000000" d="M 172.5,171.5 C 227.834,171.333 283.168,171.5 338.5,172C 339,172.5 339.5,173 340,173.5C 343.592,190.661 345.759,207.995 346.5,225.5C 343.5,225.5 340.5,225.5 337.5,225.5C 336.583,210.083 334.917,194.749 332.5,179.5C 281.167,179.5 229.833,179.5 178.5,179.5C 172.691,215.303 171.025,251.303 173.5,287.5C 170.482,287.704 167.482,288.037 164.5,288.5C 162.376,255.384 163.543,222.384 168,189.5C 168.762,183.209 170.262,177.209 172.5,171.5 Z M 203.5,196.5 C 214.318,195.817 219.151,200.817 218,211.5C 214.96,217.603 210.126,219.769 203.5,218C 197.397,214.96 195.231,210.126 197,203.5C 198.694,200.642 200.861,198.309 203.5,196.5 Z"/></g>
<g><path style="opacity:0.948" fill="#000000" d="M 349.5,171.5 C 382.5,171.5 415.5,171.5 448.5,171.5C 448.5,174.167 448.5,176.833 448.5,179.5C 418.159,179.167 387.826,179.5 357.5,180.5C 360.48,195.005 362.146,209.671 362.5,224.5C 359.751,224.274 357.084,224.607 354.5,225.5C 352.984,208.704 350.651,192.038 347.5,175.5C 348.18,174.14 348.847,172.807 349.5,171.5 Z"/></g>
<g><path style="opacity:0.864" fill="#000000" d="M 40.5,187.5 C 60.6499,185.483 69.4833,194.483 67,214.5C 61.6574,225.752 52.8241,229.919 40.5,227C 29.2477,221.657 25.0811,212.824 28,200.5C 30.3531,194.315 34.5198,189.982 40.5,187.5 Z M 43.5,196.5 C 54.3181,195.817 59.1514,200.817 58,211.5C 54.9596,217.603 50.1263,219.769 43.5,218C 37.3974,214.96 35.2307,210.126 37,203.5C 38.6941,200.642 40.8607,198.309 43.5,196.5 Z"/></g>
<g><path style="opacity:0.864" fill="#000000" d="M 200.5,187.5 C 220.65,185.483 229.483,194.483 227,214.5C 221.657,225.752 212.824,229.919 200.5,227C 189.248,221.657 185.081,212.824 188,200.5C 190.353,194.315 194.52,189.982 200.5,187.5 Z M 203.5,196.5 C 200.861,198.309 198.694,200.642 197,203.5C 195.231,210.126 197.397,214.96 203.5,218C 210.126,219.769 214.96,217.603 218,211.5C 219.151,200.817 214.318,195.817 203.5,196.5 Z"/></g>
<g><path style="opacity:0.864" fill="#000000" d="M 456.5,187.5 C 476.65,185.483 485.483,194.483 483,214.5C 477.657,225.752 468.824,229.919 456.5,227C 445.248,221.657 441.081,212.824 444,200.5C 446.353,194.315 450.52,189.982 456.5,187.5 Z M 459.5,196.5 C 470.318,195.817 475.151,200.817 474,211.5C 470.96,217.603 466.126,219.769 459.5,218C 453.397,214.96 451.231,210.126 453,203.5C 454.694,200.642 456.861,198.309 459.5,196.5 Z"/></g>
<g><path style="opacity:0.864" fill="#000000" d="M 104.5,203.5 C 124.65,201.483 133.483,210.483 131,230.5C 125.657,241.752 116.824,245.919 104.5,243C 93.2477,237.657 89.0811,228.824 92,216.5C 94.3531,210.315 98.5198,205.982 104.5,203.5 Z M 107.5,212.5 C 118.318,211.817 123.151,216.817 122,227.5C 118.96,233.603 114.126,235.769 107.5,234C 101.397,230.96 99.2307,226.126 101,219.5C 102.694,216.642 104.861,214.309 107.5,212.5 Z"/></g>
<g><path style="opacity:0.864" fill="#000000" d="M 232.5,235.5 C 252.65,233.483 261.483,242.483 259,262.5C 253.657,273.752 244.824,277.919 232.5,275C 221.248,269.657 217.081,260.824 220,248.5C 222.353,242.315 226.52,237.982 232.5,235.5 Z M 235.5,244.5 C 246.318,243.817 251.151,248.817 250,259.5C 246.96,265.603 242.126,267.769 235.5,266C 229.397,262.96 227.231,258.126 229,251.5C 230.694,248.642 232.861,246.309 235.5,244.5 Z"/></g>
<g><path style="opacity:0.864" fill="#000000" d="M 344.5,235.5 C 364.65,233.483 373.483,242.483 371,262.5C 365.657,273.752 356.824,277.919 344.5,275C 333.248,269.657 329.081,260.824 332,248.5C 334.353,242.315 338.52,237.982 344.5,235.5 Z M 347.5,244.5 C 358.318,243.817 363.151,248.817 362,259.5C 358.96,265.603 354.126,267.769 347.5,266C 341.397,262.96 339.231,258.126 341,251.5C 342.694,248.642 344.861,246.309 347.5,244.5 Z"/></g>
<g><path style="opacity:0.867" fill="#000000" d="M 43.5,238.5 C 46.5176,238.704 49.5176,239.037 52.5,239.5C 52.1125,256.554 52.7791,273.554 54.5,290.5C 51.5176,290.963 48.5176,291.296 45.5,291.5C 43.7644,273.887 43.0977,256.22 43.5,238.5 Z"/></g>
<g><path style="opacity:0.894" fill="#000000" d="M 462.5,238.5 C 464.167,238.5 465.833,238.5 467.5,238.5C 469.999,273.503 464.499,307.17 451,339.5C 448.548,344.907 445.714,350.074 442.5,355C 433.506,355.5 424.506,355.666 415.5,355.5C 415.5,352.833 415.5,350.167 415.5,347.5C 422.863,347.831 430.197,347.497 437.5,346.5C 453.859,312.706 460.859,277.039 458.5,239.5C 460.099,239.768 461.432,239.434 462.5,238.5 Z"/></g>
<g><path style="opacity:0.864" fill="#000000" d="M 424.5,267.5 C 444.65,265.483 453.483,274.483 451,294.5C 445.657,305.752 436.824,309.919 424.5,307C 413.248,301.657 409.081,292.824 412,280.5C 414.353,274.315 418.52,269.982 424.5,267.5 Z M 427.5,276.5 C 438.318,275.817 443.151,280.817 442,291.5C 438.96,297.603 434.126,299.769 427.5,298C 421.397,294.96 419.231,290.126 421,283.5C 422.694,280.642 424.861,278.309 427.5,276.5 Z"/></g>
<g><path style="opacity:0.864" fill="#000000" d="M 56.5,299.5 C 76.6499,297.483 85.4833,306.483 83,326.5C 77.6574,337.752 68.8241,341.919 56.5,339C 45.2477,333.657 41.0811,324.824 44,312.5C 46.3531,306.315 50.5198,301.982 56.5,299.5 Z M 59.5,308.5 C 70.3181,307.817 75.1514,312.817 74,323.5C 70.9596,329.603 66.1263,331.769 59.5,330C 53.3974,326.96 51.2307,322.126 53,315.5C 54.6941,312.642 56.8607,310.309 59.5,308.5 Z"/></g>
<g><path style="opacity:0.92" fill="#000000" d="M 146.5,299.5 C 160.504,299.333 174.504,299.5 188.5,300C 191.333,301.5 193.5,303.667 195,306.5C 195.667,311.833 195.667,317.167 195,322.5C 175.541,323.085 156.041,323.919 136.5,325C 123.661,329.174 116.828,338.007 116,351.5C 115.333,378.5 115.333,405.5 116,432.5C 118.197,458.364 132.197,472.697 158,475.5C 172.038,474.483 183.371,468.483 192,457.5C 196.558,448.484 200.725,439.318 204.5,430C 208.208,427.868 212.208,427.035 216.5,427.5C 216.5,430.167 216.5,432.833 216.5,435.5C 213.901,435.549 211.734,436.549 210,438.5C 201.906,471.265 181.073,486.098 147.5,483C 126.333,477.833 113.167,464.667 108,443.5C 107.333,409.833 107.333,376.167 108,342.5C 112.813,326.853 123.313,317.853 139.5,315.5C 138.062,308.387 140.395,303.053 146.5,299.5 Z M 151.5,307.5 C 162.172,307.333 172.839,307.5 183.5,308C 186.521,309.539 187.854,312.039 187.5,315.5C 174.167,315.5 160.833,315.5 147.5,315.5C 147.278,311.944 148.611,309.277 151.5,307.5 Z"/></g>
<g><path style="opacity:0.974" fill="#000000" d="M 210.5,299.5 C 240.502,299.333 270.502,299.5 300.5,300C 303.333,301.5 305.5,303.667 307,306.5C 307.667,315.167 307.667,323.833 307,332.5C 305.5,335.333 303.333,337.5 300.5,339C 270.5,339.667 240.5,339.667 210.5,339C 207.667,337.5 205.5,335.333 204,332.5C 203.333,323.833 203.333,315.167 204,306.5C 205.694,303.642 207.861,301.309 210.5,299.5 Z M 215.5,307.5 C 242.169,307.333 268.835,307.5 295.5,308C 297.333,308.5 298.5,309.667 299,311.5C 299.667,316.833 299.667,322.167 299,327.5C 298.5,329.333 297.333,330.5 295.5,331C 268.833,331.667 242.167,331.667 215.5,331C 213.667,330.5 212.5,329.333 212,327.5C 211.333,322.167 211.333,316.833 212,311.5C 212.69,309.65 213.856,308.316 215.5,307.5 Z"/></g>
<g><path style="opacity:0.92" fill="#000000" d="M 322.5,299.5 C 336.504,299.333 350.504,299.5 364.5,300C 370.74,303.319 373.074,308.485 371.5,315.5C 387.662,317.824 398.162,326.824 403,342.5C 403.667,376.167 403.667,409.833 403,443.5C 397.833,464.667 384.667,477.833 363.5,483C 329.927,486.098 309.094,471.265 301,438.5C 299.266,436.549 297.099,435.549 294.5,435.5C 294.5,432.833 294.5,430.167 294.5,427.5C 299.081,426.923 303.248,427.923 307,430.5C 310.325,438.466 313.658,446.466 317,454.5C 329.938,472.923 347.104,478.757 368.5,472C 381.686,465.809 390.186,455.643 394,441.5C 395.592,411.525 395.926,381.525 395,351.5C 394.172,338.007 387.339,329.174 374.5,325C 355.2,323.759 335.866,323.092 316.5,323C 315.361,317.584 315.194,312.084 316,306.5C 317.694,303.642 319.861,301.309 322.5,299.5 Z M 327.5,307.5 C 338.172,307.333 348.839,307.5 359.5,308C 362.521,309.539 363.854,312.039 363.5,315.5C 350.167,315.5 336.833,315.5 323.5,315.5C 323.278,311.944 324.611,309.277 327.5,307.5 Z"/></g>
<g><path style="opacity:0.979" fill="#000000" d="M 70.5,347.5 C 78.8333,347.5 87.1667,347.5 95.5,347.5C 95.5,350.167 95.5,352.833 95.5,355.5C 87.1667,355.5 78.8333,355.5 70.5,355.5C 70.5,352.833 70.5,350.167 70.5,347.5 Z"/></g>
<g><path style="opacity:0.884" fill="#000000" d="M 162.5,347.5 C 173.402,345.901 179.568,350.567 181,361.5C 184.055,362.914 187.222,364.081 190.5,365C 195.685,369.947 196.851,375.781 194,382.5C 190.726,386.358 186.559,388.525 181.5,389C 180.086,392.055 178.919,395.222 178,398.5C 173.053,403.685 167.219,404.851 160.5,402C 156.642,398.726 154.475,394.559 154,389.5C 150.945,388.086 147.778,386.919 144.5,386C 139.315,381.053 138.149,375.219 141,368.5C 144.274,364.642 148.441,362.475 153.5,362C 154.362,355.763 157.362,350.93 162.5,347.5 Z M 165.5,356.5 C 167.144,356.286 168.644,356.62 170,357.5C 171.167,366.667 176.333,371.833 185.5,373C 186.833,374.667 186.833,376.333 185.5,378C 176.333,379.167 171.167,384.333 170,393.5C 168.333,394.833 166.667,394.833 165,393.5C 163.833,384.333 158.667,379.167 149.5,378C 148.167,376.333 148.167,374.667 149.5,373C 159.067,371.6 164.4,366.1 165.5,356.5 Z"/></g>
<g><path style="opacity:0.892" fill="#000000" d="M 339.5,351.5 C 350.86,350.71 354.193,355.543 349.5,366C 338.964,369.997 334.464,366.497 336,355.5C 336.69,353.65 337.856,352.316 339.5,351.5 Z"/></g>
<g><path style="opacity:0.887" fill="#000000" d="M 77.5,363.5 C 83.5,363.5 89.5,363.5 95.5,363.5C 95.5,366.167 95.5,368.833 95.5,371.5C 93.1432,371.337 90.8098,371.503 88.5,372C 92.4078,376.485 96.0745,381.152 99.5,386C 97.0232,387.643 94.6898,389.476 92.5,391.5C 86.2817,384.742 80.7817,377.408 76,369.5C 75.2516,367.16 75.7516,365.16 77.5,363.5 Z"/></g>
<g><path style="opacity:0.887" fill="#000000" d="M 415.5,363.5 C 421.509,363.334 427.509,363.501 433.5,364C 434.804,364.804 435.471,365.971 435.5,367.5C 430.817,376.2 425.15,384.2 418.5,391.5C 416.31,389.476 413.977,387.643 411.5,386C 414.926,381.152 418.592,376.485 422.5,372C 420.19,371.503 417.857,371.337 415.5,371.5C 415.5,368.833 415.5,366.167 415.5,363.5 Z"/></g>
<g><path style="opacity:0.892" fill="#000000" d="M 323.5,367.5 C 334.86,366.71 338.193,371.543 333.5,382C 322.964,385.997 318.464,382.497 320,371.5C 320.69,369.65 321.856,368.316 323.5,367.5 Z"/></g>
<g><path style="opacity:0.892" fill="#000000" d="M 355.5,367.5 C 366.86,366.71 370.193,371.543 365.5,382C 354.964,385.997 350.464,382.497 352,371.5C 352.69,369.65 353.856,368.316 355.5,367.5 Z"/></g>
<g><path style="opacity:1" fill="#000000" d="M 223.5,379.5 C 228.833,379.5 234.167,379.5 239.5,379.5C 239.5,382.167 239.5,384.833 239.5,387.5C 234.167,387.5 228.833,387.5 223.5,387.5C 223.5,384.833 223.5,382.167 223.5,379.5 Z"/></g>
<g><path style="opacity:1" fill="#000000" d="M 271.5,379.5 C 276.833,379.5 282.167,379.5 287.5,379.5C 287.5,382.167 287.5,384.833 287.5,387.5C 282.167,387.5 276.833,387.5 271.5,387.5C 271.5,384.833 271.5,382.167 271.5,379.5 Z"/></g>
<g><path style="opacity:0.892" fill="#000000" d="M 339.5,383.5 C 350.86,382.71 354.193,387.543 349.5,398C 338.964,401.997 334.464,398.497 336,387.5C 336.69,385.65 337.856,384.316 339.5,383.5 Z"/></g>
<g><path style="opacity:0.87" fill="#000000" d="M 247.5,395.5 C 273.312,393.812 285.145,405.812 283,431.5C 276.671,447.752 264.838,454.252 247.5,451C 231.248,444.671 224.748,432.838 228,415.5C 231.351,405.65 237.851,398.983 247.5,395.5 Z M 249.5,404.5 C 267.648,403.148 275.815,411.481 274,429.5C 267.178,443.042 257.011,446.209 243.5,439C 235.602,430.745 234.435,421.579 240,411.5C 242.79,408.535 245.957,406.202 249.5,404.5 Z"/></g>
</svg>
