<?xml version="1.0" encoding="UTF-8"?>
<!DOCTYPE svg PUBLIC "-//W3C//DTD SVG 1.1//EN" "http://www.w3.org/Graphics/SVG/1.1/DTD/svg11.dtd">
<svg xmlns="http://www.w3.org/2000/svg" version="1.1" width="200px" height="200px" style="shape-rendering:geometricPrecision; text-rendering:geometricPrecision; image-rendering:optimizeQuality; fill-rule:evenodd; clip-rule:evenodd" xmlns:xlink="http://www.w3.org/1999/xlink">
<g><path style="opacity:0.87" fill="#f5f5f5" d="M 127.5,-0.5 C 139.167,-0.5 150.833,-0.5 162.5,-0.5C 163.811,11.4381 163.811,23.4381 162.5,35.5C 150.637,36.8253 138.803,36.8253 127,35.5C 126.189,23.4242 126.355,11.4242 127.5,-0.5 Z M 133.5,6.5 C 141.167,6.5 148.833,6.5 156.5,6.5C 156.5,14.1667 156.5,21.8333 156.5,29.5C 148.833,29.5 141.167,29.5 133.5,29.5C 133.5,21.8333 133.5,14.1667 133.5,6.5 Z"/></g>
<g><path style="opacity:0.852" fill="#f5f5f5" d="M 19.5,29.5 C 38.5029,29.3334 57.5029,29.5001 76.5,30C 78.5701,30.9476 80.0701,32.4476 81,34.5C 81.6667,40.8333 81.6667,47.1667 81,53.5C 79.0732,58.4277 75.5732,61.5944 70.5,63C 54.4327,63.954 38.4327,63.6207 22.5,62C 18.9421,60.1083 16.4421,57.2749 15,53.5C 14.3333,47.1667 14.3333,40.8333 15,34.5C 16.025,32.313 17.525,30.6464 19.5,29.5 Z M 22.5,36.5 C 39.5033,36.3334 56.5033,36.5001 73.5,37C 74.6349,41.7477 74.8015,46.581 74,51.5C 72.4571,53.3783 70.6238,54.8783 68.5,56C 54.8333,56.6667 41.1667,56.6667 27.5,56C 25.0607,55.2261 23.2273,53.7261 22,51.5C 21.2223,46.4158 21.3889,41.4158 22.5,36.5 Z"/></g>
<g><path style="opacity:0.829" fill="#f5f5f5" d="M 117.5,68.5 C 135.836,68.3334 154.17,68.5001 172.5,69C 175,70.1667 176.833,72 178,74.5C 178.667,80.5 178.667,86.5 178,92.5C 175.381,99.1269 170.547,102.627 163.5,103C 149.126,103.891 134.792,103.557 120.5,102C 116.585,99.7545 113.752,96.5878 112,92.5C 111.333,86.1667 111.333,79.8333 112,73.5C 113.73,71.5981 115.563,69.9314 117.5,68.5 Z M 119.5,75.5 C 136.17,75.3334 152.837,75.5001 169.5,76C 170.76,78.2125 171.426,80.7125 171.5,83.5C 172.555,88.6375 170.889,92.4708 166.5,95C 152.167,95.6667 137.833,95.6667 123.5,95C 121.333,94.1667 119.833,92.6667 119,90.5C 118.222,85.4158 118.389,80.4158 119.5,75.5 Z"/></g>
<g><path style="opacity:0.87" fill="#f5f5f5" d="M 199.5,131.5 C 199.5,137.833 199.5,144.167 199.5,150.5C 197.261,155.234 193.594,158.401 188.5,160C 151.835,160.5 115.168,160.667 78.5,160.5C 78.8137,173.579 78.4803,186.579 77.5,199.5C 75.8333,199.5 74.1667,199.5 72.5,199.5C 71.5701,195.6 71.2367,191.6 71.5,187.5C 63.8333,187.5 56.1667,187.5 48.5,187.5C 48.7633,191.6 48.4299,195.6 47.5,199.5C 45.8333,199.5 44.1667,199.5 42.5,199.5C 41.5197,186.579 41.1863,173.579 41.5,160.5C 30.8281,160.667 20.1615,160.5 9.5,160C 4.98004,157.978 1.6467,154.811 -0.5,150.5C -0.5,144.167 -0.5,137.833 -0.5,131.5C 0.646381,129.525 2.31305,128.025 4.5,127C 16.8288,126.5 29.1622,126.333 41.5,126.5C 41.3337,119.825 41.5004,113.158 42,106.5C 44,105.167 46,105.167 48,106.5C 48.4986,110.152 48.6653,113.818 48.5,117.5C 56.1667,117.5 63.8333,117.5 71.5,117.5C 71.3347,113.818 71.5014,110.152 72,106.5C 74,105.167 76,105.167 78,106.5C 78.4996,113.158 78.6663,119.825 78.5,126.5C 117.168,126.333 155.835,126.5 194.5,127C 196.687,128.025 198.354,129.525 199.5,131.5 Z M 48.5,124.5 C 56.1667,124.5 63.8333,124.5 71.5,124.5C 71.5,129.167 71.5,133.833 71.5,138.5C 63.8333,138.5 56.1667,138.5 48.5,138.5C 48.5,133.833 48.5,129.167 48.5,124.5 Z M 7.5,133.5 C 18.8333,133.5 30.1667,133.5 41.5,133.5C 41.5,140.167 41.5,146.833 41.5,153.5C 31.8276,153.666 22.1609,153.5 12.5,153C 7.24572,150.996 5.24572,147.162 6.5,141.5C 6.55108,138.747 6.88441,136.08 7.5,133.5 Z M 78.5,133.5 C 116.168,133.333 153.835,133.5 191.5,134C 192.927,139.532 192.76,145.032 191,150.5C 189.581,151.46 188.081,152.293 186.5,153C 150.502,153.5 114.502,153.667 78.5,153.5C 78.5,146.833 78.5,140.167 78.5,133.5 Z M 48.5,145.5 C 56.1667,145.5 63.8333,145.5 71.5,145.5C 71.5,150.167 71.5,154.833 71.5,159.5C 63.8333,159.5 56.1667,159.5 48.5,159.5C 48.5,154.833 48.5,150.167 48.5,145.5 Z M 48.5,166.5 C 56.1667,166.5 63.8333,166.5 71.5,166.5C 71.5,171.167 71.5,175.833 71.5,180.5C 63.8333,180.5 56.1667,180.5 48.5,180.5C 48.5,175.833 48.5,171.167 48.5,166.5 Z"/></g>
</svg>
