<?xml version="1.0" standalone="no"?>
<!DOCTYPE svg PUBLIC "-//W3C//DTD SVG 20010904//EN"
 "http://www.w3.org/TR/2001/REC-SVG-20010904/DTD/svg10.dtd">
<svg version="1.0" xmlns="http://www.w3.org/2000/svg"
 width="50.000000pt" height="50.000000pt" viewBox="0 0 50.000000 50.000000"
 preserveAspectRatio="xMidYMid meet">

<g transform="translate(0.000000,50.000000) scale(0.100000,-0.100000)"
fill="#000000" stroke="none">
<path d="M130 459 c-43 -26 -120 -99 -120 -115 0 -15 33 -44 51 -44 8 1 30 14
49 31 32 27 36 28 47 13 11 -15 6 -24 -32 -65 -25 -27 -45 -55 -45 -63 0 -8
-6 -19 -14 -23 -18 -11 -36 -47 -36 -72 0 -49 72 -79 115 -47 16 11 24 11 59
-5 158 -72 324 80 276 253 -10 35 -13 37 -64 43 -29 4 -79 5 -111 3 l-57 -3
-13 43 c-23 77 -45 87 -105 51z m35 -36 c-9 -38 -14 -41 -31 -19 -15 22 -3 46
23 46 12 0 13 -7 8 -27z m49 -10 c5 -16 1 -25 -14 -33 -29 -15 -31 -12 -17 32
12 39 20 39 31 1z m-99 -23 c10 -31 -4 -44 -26 -24 -14 13 -16 20 -8 31 16 18
27 16 34 -7z m-43 -62 c-17 -17 -47 9 -30 29 10 12 13 12 27 -1 11 -12 12 -19
3 -28z m162 33 c6 -10 -44 -34 -53 -26 -3 4 3 13 13 21 23 16 33 18 40 5z
m146 -22 c0 -24 -33 -79 -56 -94 -14 -9 -37 -15 -52 -13 -25 3 -27 6 -26 53 1
43 5 51 25 56 40 11 109 10 109 -2z m78 -27 c2 -16 -3 -25 -20 -31 -30 -11
-38 -3 -31 32 4 22 10 27 27 25 13 -2 22 -12 24 -26z m-207 -96 c35 -12 72 -1
100 29 31 32 41 32 33 -1 -7 -25 -5 -27 22 -20 16 4 37 17 46 29 l18 22 0 -25
c0 -75 -79 -164 -154 -175 -56 -9 -90 -1 -138 31 -31 20 -78 86 -78 109 0 3
19 26 42 51 l42 45 20 -43 c13 -27 31 -46 47 -52z m-161 -41 c0 -3 -5 -14 -12
-24 -16 -26 7 -54 39 -48 28 5 31 -9 3 -18 -48 -15 -85 29 -60 74 9 19 30 29
30 16z m30 -46 c0 -5 -7 -9 -15 -9 -15 0 -20 12 -9 23 8 8 24 -1 24 -14z"/>
<path d="M220 183 c0 -11 33 -43 44 -43 4 0 4 5 1 10 -4 6 20 10 64 10 41 0
71 4 71 10 0 6 -31 10 -74 10 -41 0 -81 3 -90 6 -9 3 -16 2 -16 -3z"/>
<path d="M400 473 c1 -5 16 -15 35 -24 28 -13 35 -14 35 -3 0 15 -30 34 -54
34 -9 0 -16 -3 -16 -7z"/>
<path d="M283 434 c-15 -14 -23 -24 -18 -22 59 23 75 31 75 39 0 17 -29 9 -57
-17z"/>
</g>
</svg>
