<?xml version="1.0" encoding="UTF-8"?>
<!DOCTYPE svg PUBLIC "-//W3C//DTD SVG 1.1//EN" "http://www.w3.org/Graphics/SVG/1.1/DTD/svg11.dtd">
<svg xmlns="http://www.w3.org/2000/svg" version="1.1" width="50px" height="50px" style="shape-rendering:geometricPrecision; text-rendering:geometricPrecision; image-rendering:optimizeQuality; fill-rule:evenodd; clip-rule:evenodd" xmlns:xlink="http://www.w3.org/1999/xlink">
<g><path style="opacity:0.723" fill="#000000" d="M 22.5,0.5 C 32.4929,-0.344801 35.4929,3.82187 31.5,13C 35.2255,13.7599 38.8922,13.5932 42.5,12.5C 43.4776,12.9767 44.3109,13.6433 45,14.5C 45.8191,25.0769 45.6524,35.5769 44.5,46C 32.1667,46.6667 19.8333,46.6667 7.5,46C 6.87424,45.2496 6.37424,44.4162 6,43.5C 5.78221,40.5738 5.28221,37.7405 4.5,35C 5.16667,34.3333 5.83333,33.6667 6.5,33C 9.25725,33.6012 12.0906,34.4345 15,35.5C 19.7552,34.3132 20.5886,31.8132 17.5,28C 13.8347,27.3228 10.5014,28.1561 7.5,30.5C 6.91395,30.2907 6.41395,29.9574 6,29.5C 5.28072,24.7993 5.44739,20.1327 6.5,15.5C 6.83333,13.8333 7.83333,12.8333 9.5,12.5C 13.1078,13.5932 16.7745,13.7599 20.5,13C 17.4527,8.11817 18.1194,3.95151 22.5,0.5 Z M 23.5,3.5 C 26.0444,3.10433 28.2111,3.77099 30,5.5C 30.4415,8.30526 29.9415,10.9719 28.5,13.5C 28.6082,14.4419 28.9415,15.2753 29.5,16C 34.0855,16.1971 38.5855,16.6971 43,17.5C 43.6667,25.8333 43.6667,34.1667 43,42.5C 42.5,43 42,43.5 41.5,44C 30.8177,44.8324 20.1511,44.6657 9.5,43.5C 8.45567,41.2324 8.289,38.8991 9,36.5C 12.9326,39.0988 16.9326,39.0988 21,36.5C 24.2426,26.7377 20.7426,22.9044 10.5,25C 10,25.5 9.5,26 9,26.5C 8.33333,23.5 8.33333,20.5 9,17.5C 13.7367,16.5308 18.57,16.1975 23.5,16.5C 23.7918,13.2346 23.1251,10.2346 21.5,7.5C 21.7517,5.92714 22.4183,4.5938 23.5,3.5 Z"/></g>
</svg>
