<?xml version="1.0" encoding="UTF-8"?>
<!DOCTYPE svg PUBLIC "-//W3C//DTD SVG 1.1//EN" "http://www.w3.org/Graphics/SVG/1.1/DTD/svg11.dtd">
<svg xmlns="http://www.w3.org/2000/svg" version="1.1" width="512px" height="512px" style="shape-rendering:geometricPrecision; text-rendering:geometricPrecision; image-rendering:optimizeQuality; fill-rule:evenodd; clip-rule:evenodd" xmlns:xlink="http://www.w3.org/1999/xlink">
<g><path style="opacity:0.969" fill="#f5f5f5" d="M 348.5,-0.5 C 358.833,-0.5 369.167,-0.5 379.5,-0.5C 387.018,2.54243 391.518,8.2091 393,16.5C 409.178,76.8771 425.511,137.21 442,197.5C 442.752,200.894 442.585,204.227 441.5,207.5C 440.335,208.584 439.002,209.417 437.5,210C 411.952,208.591 387.285,212.591 363.5,222C 335.111,235.027 307.444,249.361 280.5,265C 261.205,275.431 240.872,283.098 219.5,288C 204.542,290.815 189.542,291.148 174.5,289C 170,287.167 166.833,284 165,279.5C 147.396,215.523 129.896,151.523 112.5,87.5C 112.486,83.3782 114.486,80.8782 118.5,80C 142.959,81.3632 166.626,77.6965 189.5,69C 201.525,64.4884 213.191,59.155 224.5,53C 246.007,41.079 267.674,29.4123 289.5,18C 308.432,9.07589 328.099,2.90923 348.5,-0.5 Z M 364.5,23.5 C 366.124,23.3601 367.29,24.0267 368,25.5C 372.273,41.7614 376.773,57.9281 381.5,74C 362.659,74.7529 344.492,78.5863 327,85.5C 321.715,68.6936 317.215,51.6936 313.5,34.5C 330.211,28.893 347.211,25.2263 364.5,23.5 Z M 255.5,64.5 C 256.931,64.8807 257.764,65.8807 258,67.5C 262.168,82.839 266.335,98.1723 270.5,113.5C 253.638,124.435 235.971,134.102 217.5,142.5C 212.682,126.233 208.016,109.899 203.5,93.5C 221.541,84.8197 238.875,75.153 255.5,64.5 Z M 323.5,87.5 C 325.776,87.7565 326.943,89.0898 327,91.5C 331.606,109.094 336.44,126.594 341.5,144C 323.268,152.116 305.601,161.283 288.5,171.5C 287.914,171.291 287.414,170.957 287,170.5C 281.686,151.912 277.02,133.245 273,114.5C 289.37,104.566 306.204,95.5657 323.5,87.5 Z M 387.5,133.5 C 391.351,132.971 394.851,133.638 398,135.5C 402.105,151.809 406.605,167.976 411.5,184C 392.696,184.994 374.529,188.827 357,195.5C 352.363,178.592 347.53,161.758 342.5,145C 357.185,139.413 372.185,135.579 387.5,133.5 Z M 214.5,144.5 C 216.48,145.848 217.647,147.848 218,150.5C 222.776,167.476 227.11,184.476 231,201.5C 212.906,209.251 194.073,213.418 174.5,214C 169.074,195.217 163.74,176.384 158.5,157.5C 178.064,156.458 196.731,152.125 214.5,144.5 Z M 284.5,174.5 C 285.376,174.369 286.043,174.702 286.5,175.5C 291.626,192.003 295.792,208.67 299,225.5C 282.145,235.596 264.811,244.93 247,253.5C 242.5,236.833 238,220.167 233.5,203.5C 241.413,198.538 249.746,194.038 258.5,190C 267.395,185.059 276.062,179.892 284.5,174.5 Z"/></g>
<g><path style="opacity:0.963" fill="#f5f5f5" d="M 192.5,511.5 C 188.833,511.5 185.167,511.5 181.5,511.5C 176.034,508.856 172.534,504.523 171,498.5C 136.844,364.209 102.844,229.876 69,95.5C 66.5618,82.688 71.7285,75.3547 84.5,73.5C 92.4317,73.932 97.5984,77.932 100,85.5C 134.333,220.833 168.667,356.167 203,491.5C 204.436,500.97 200.936,507.636 192.5,511.5 Z"/></g>
</svg>
