<?xml version="1.0" standalone="no"?>
<!DOCTYPE svg PUBLIC "-//W3C//DTD SVG 20010904//EN"
 "http://www.w3.org/TR/2001/REC-SVG-20010904/DTD/svg10.dtd">
<svg version="1.0" xmlns="http://www.w3.org/2000/svg"
 width="64.000000pt" height="64.000000pt" viewBox="0 0 64.000000 64.000000"
 preserveAspectRatio="xMidYMid meet">

<g transform="translate(0.000000,64.000000) scale(0.100000,-0.100000)"
fill="#000000" stroke="none">
<path d="M230 579 c-49 -32 -127 -59 -172 -59 -25 0 -28 -3 -28 -32 0 -61 30
-172 64 -243 38 -79 85 -138 145 -179 39 -28 41 -28 67 -11 14 9 43 32 64 51
26 24 37 29 36 18 0 -9 7 -21 16 -27 13 -9 21 -7 36 7 19 17 21 16 58 -28 39
-47 60 -56 82 -34 22 22 13 43 -34 82 -44 37 -45 39 -28 58 21 23 9 53 -22 53
-39 0 -42 12 -18 82 13 38 26 99 30 136 l7 67 -30 0 c-46 0 -123 26 -176 60
-26 16 -49 30 -50 29 -1 0 -22 -14 -47 -30z m122 -34 c38 -18 88 -37 113 -41
37 -5 45 -10 45 -28 0 -28 -26 -144 -39 -179 -19 -50 -29 -19 -11 35 10 29 21
74 24 99 l7 46 -63 17 c-35 9 -82 28 -105 42 l-42 25 -53 -30 c-29 -16 -77
-34 -105 -41 -29 -7 -53 -17 -53 -23 1 -46 35 -159 66 -217 34 -65 119 -160
144 -160 6 0 31 19 55 41 25 23 49 39 53 34 6 -6 -94 -105 -107 -105 -3 0 -28
19 -55 42 -91 78 -154 203 -171 339 l-7 55 59 12 c32 7 81 25 108 41 28 16 55
29 60 30 6 0 40 -15 77 -34z m-12 -40 c28 -14 67 -29 87 -33 34 -8 38 -11 35
-38 -2 -16 -10 -53 -18 -83 l-15 -54 -68 67 c-63 63 -71 67 -107 64 -37 -3
-39 -5 -42 -42 -3 -37 1 -43 75 -118 l78 -78 -43 -42 -42 -42 -49 48 c-27 27
-61 70 -75 96 -28 52 -69 196 -60 211 3 5 15 9 27 9 12 0 49 13 82 29 33 16
66 30 73 30 7 1 35 -10 62 -24z m-60 -120 c0 -20 -5 -25 -25 -25 -18 0 -25 5
-25 18 0 24 8 32 32 32 13 0 18 -7 18 -25z m195 -185 c-10 -17 -175 148 -175
175 0 15 23 -3 91 -71 59 -59 89 -96 84 -104z m-106 56 c56 -56 79 -86 71 -91
-8 -5 -45 25 -104 84 -68 68 -86 91 -71 91 12 0 54 -34 104 -84z m161 -54 c0
-14 -89 -96 -97 -89 -4 4 13 28 37 52 42 43 60 54 60 37z m14 -104 c-4 -5 -17
0 -30 13 -13 12 -21 26 -18 31 4 5 17 0 30 -13 13 -12 21 -26 18 -31z m42 -19
c10 -17 -13 -36 -27 -22 -12 12 -4 33 11 33 5 0 12 -5 16 -11z"/>
</g>
</svg>
