<?xml version="1.0" encoding="UTF-8"?>
<!DOCTYPE svg PUBLIC "-//W3C//DTD SVG 1.1//EN" "http://www.w3.org/Graphics/SVG/1.1/DTD/svg11.dtd">
<svg xmlns="http://www.w3.org/2000/svg" version="1.1" width="512px" height="512px" style="shape-rendering:geometricPrecision; text-rendering:geometricPrecision; image-rendering:optimizeQuality; fill-rule:evenodd; clip-rule:evenodd" xmlns:xlink="http://www.w3.org/1999/xlink">
<g><path style="opacity:0.966" fill="#f5f5f5" d="M 249.5,-0.5 C 253.5,-0.5 257.5,-0.5 261.5,-0.5C 265.428,1.59151 268.594,4.59151 271,8.5C 272.363,16.4295 272.863,24.4295 272.5,32.5C 358.499,42.0493 420.666,85.3826 459,162.5C 469.873,186.697 476.373,212.03 478.5,238.5C 486.571,238.137 494.571,238.637 502.5,240C 506.408,242.406 509.408,245.572 511.5,249.5C 511.5,253.5 511.5,257.5 511.5,261.5C 509.408,265.428 506.408,268.594 502.5,271C 494.571,272.363 486.571,272.863 478.5,272.5C 468.951,358.499 425.617,420.666 348.5,459C 324.306,469.882 298.972,476.382 272.5,478.5C 272.863,486.571 272.363,494.571 271,502.5C 268.594,506.408 265.428,509.408 261.5,511.5C 257.5,511.5 253.5,511.5 249.5,511.5C 245.572,509.408 242.406,506.408 240,502.5C 238.637,494.571 238.137,486.571 238.5,478.5C 152.501,468.951 90.3342,425.617 52,348.5C 41.1266,324.303 34.6266,298.97 32.5,272.5C 24.4295,272.863 16.4295,272.363 8.5,271C 4.59151,268.594 1.59151,265.428 -0.5,261.5C -0.5,257.5 -0.5,253.5 -0.5,249.5C 1.6467,245.189 4.98004,242.022 9.5,240C 17.0804,238.604 24.747,238.104 32.5,238.5C 42.0493,152.501 85.3826,90.3342 162.5,52C 186.697,41.1266 212.03,34.6266 238.5,32.5C 238.137,24.4295 238.637,16.4295 240,8.5C 242.406,4.59151 245.572,1.59151 249.5,-0.5 Z M 234.5,66.5 C 235.833,66.5 237.167,66.5 238.5,66.5C 238.5,85.8333 238.5,105.167 238.5,124.5C 192.787,131.266 158.954,154.933 137,195.5C 134.156,200.683 132.323,206.183 131.5,212C 133.976,226.414 142.31,231.414 156.5,227C 158.609,225.859 160.442,224.359 162,222.5C 176.422,187.91 201.922,166.577 238.5,158.5C 238.333,173.837 238.5,189.17 239,204.5C 242.449,214.932 249.616,219.099 260.5,217C 266.74,215.092 270.573,210.925 272,204.5C 272.5,189.17 272.667,173.837 272.5,158.5C 316.167,168.167 342.833,194.833 352.5,238.5C 337.163,238.333 321.83,238.5 306.5,239C 296.068,242.449 291.901,249.616 294,260.5C 295.406,265.573 298.572,269.073 303.5,271C 350.44,272.485 397.44,272.985 444.5,272.5C 435.582,344.209 398.915,396.043 334.5,428C 314.749,436.938 294.082,442.438 272.5,444.5C 272.5,425.167 272.5,405.833 272.5,386.5C 319.22,379.729 353.387,355.396 375,313.5C 377.51,308.972 379.01,304.139 379.5,299C 377.845,286.026 370.512,280.693 357.5,283C 354.751,284.123 352.251,285.623 350,287.5C 338.955,315.211 319.788,335.045 292.5,347C 285.99,349.46 279.324,351.294 272.5,352.5C 272.667,337.163 272.5,321.83 272,306.5C 268.551,296.068 261.384,291.901 250.5,294C 244.26,295.908 240.427,300.075 239,306.5C 238.5,321.83 238.333,337.163 238.5,352.5C 194.833,342.833 168.167,316.167 158.5,272.5C 173.837,272.667 189.17,272.5 204.5,272C 214.932,268.551 219.099,261.384 217,250.5C 215.594,245.427 212.428,241.927 207.5,240C 160.56,238.515 113.56,238.015 66.5,238.5C 75.5332,166.874 112.2,115.041 176.5,83C 195.16,74.6725 214.493,69.1725 234.5,66.5 Z M 272.5,66.5 C 344.127,75.5335 395.96,112.2 428,176.5C 436.938,196.251 442.438,216.917 444.5,238.5C 425.167,238.5 405.833,238.5 386.5,238.5C 378.574,189.079 351.907,153.913 306.5,133C 295.542,128.594 284.209,125.761 272.5,124.5C 272.5,105.167 272.5,85.8333 272.5,66.5 Z M 66.5,272.5 C 85.8333,272.5 105.167,272.5 124.5,272.5C 130.463,314.262 151.129,346.429 186.5,369C 202.69,378.341 220.023,384.174 238.5,386.5C 238.5,405.833 238.5,425.167 238.5,444.5C 166.791,435.583 114.958,398.916 83,334.5C 74.0621,314.749 68.5621,294.082 66.5,272.5 Z"/></g>
<g><path style="opacity:0.949" fill="#f5f5f5" d="M 249.5,233.5 C 272.265,232.715 281.099,243.382 276,265.5C 268.729,277.147 258.563,280.647 245.5,276C 233.853,268.729 230.353,258.563 235,245.5C 238.399,239.724 243.232,235.724 249.5,233.5 Z"/></g>
</svg>
