<?xml version="1.0" standalone="no"?>
<!DOCTYPE svg PUBLIC "-//W3C//DTD SVG 20010904//EN"
 "http://www.w3.org/TR/2001/REC-SVG-20010904/DTD/svg10.dtd">
<svg version="1.0" xmlns="http://www.w3.org/2000/svg"
 width="60.000000pt" height="60.000000pt" viewBox="0 0 60.000000 60.000000"
 preserveAspectRatio="xMidYMid meet">

<g transform="translate(0.000000,60.000000) scale(0.100000,-0.100000)"
fill="#000000" stroke="none">
<path d="M236 524 c-31 -30 -9 -84 34 -84 24 0 50 26 50 50 0 24 -26 50 -50
50 -10 0 -26 -7 -34 -16z"/>
<path d="M443 503 c-76 -4 -83 -6 -83 -24 0 -11 -13 -34 -29 -50 -40 -39 -82
-39 -122 0 l-29 30 -16 -37 c-50 -117 -48 -108 -26 -162 18 -44 20 -57 10
-116 -7 -47 -7 -69 1 -77 7 -7 14 -8 21 -1 17 17 50 145 50 192 0 61 21 88 76
97 47 7 55 12 83 60 13 23 32 34 75 48 31 9 68 17 81 17 28 0 33 15 9 24 -9 3
-16 5 -17 4 -1 -1 -39 -4 -84 -5z"/>
<path d="M250 172 c-12 -37 -11 -47 3 -77 17 -36 34 -45 42 -23 3 7 -3 42 -14
78 l-18 65 -13 -43z"/>
</g>
</svg>
