<?xml version="1.0" standalone="no"?>
<!DOCTYPE svg PUBLIC "-//W3C//DTD SVG 20010904//EN"
 "http://www.w3.org/TR/2001/REC-SVG-20010904/DTD/svg10.dtd">
<svg version="1.0" xmlns="http://www.w3.org/2000/svg"
 width="50.000000pt" height="50.000000pt" viewBox="0 0 50.000000 50.000000"
 preserveAspectRatio="xMidYMid meet">

<g transform="translate(0.000000,50.000000) scale(0.100000,-0.100000)"
fill="#000000" stroke="none">
<path d="M176 375 l-68 -125 68 -125 c38 -69 71 -125 74 -125 3 0 36 56 74
125 l68 125 -68 125 c-38 69 -71 125 -74 125 -3 0 -36 -56 -74 -125z m95 -35
l16 -80 -37 0 -37 0 16 80 c8 44 18 80 21 80 3 0 13 -36 21 -80z m-56 28 c-20
-97 -25 -108 -51 -108 -14 0 -24 3 -22 8 19 41 70 132 74 132 3 0 3 -15 -1
-32z m107 -30 c18 -35 34 -66 36 -70 2 -5 -8 -8 -22 -8 -21 0 -27 6 -35 38
-17 66 -23 102 -17 102 3 0 20 -28 38 -62z m-123 -135 c17 -67 23 -103 17
-103 -4 0 -55 91 -74 133 -2 4 8 7 22 7 21 0 27 -6 35 -37z m72 -43 c-8 -44
-18 -80 -21 -80 -3 0 -13 36 -21 80 l-16 80 37 0 37 0 -16 -80z m87 73 c-21
-48 -70 -134 -74 -130 -4 4 11 93 21 125 3 6 16 12 31 12 14 0 24 -3 22 -7z"/>
</g>
</svg>
