<?xml version="1.0" encoding="UTF-8"?>
<!DOCTYPE svg PUBLIC "-//W3C//DTD SVG 1.1//EN" "http://www.w3.org/Graphics/SVG/1.1/DTD/svg11.dtd">
<svg xmlns="http://www.w3.org/2000/svg" version="1.1" width="512px" height="512px" style="shape-rendering:geometricPrecision; text-rendering:geometricPrecision; image-rendering:optimizeQuality; fill-rule:evenodd; clip-rule:evenodd" xmlns:xlink="http://www.w3.org/1999/xlink">
<g><path style="opacity:0.938" fill="#f5f5f5" d="M -0.5,391.5 C -0.5,279.167 -0.5,166.833 -0.5,54.5C 4.64809,39.8987 14.9814,31.3987 30.5,29C 121.5,28.3333 212.5,28.3333 303.5,29C 307.666,29.985 309.666,32.6516 309.5,37C 309.699,40.2738 308.366,42.6071 305.5,44C 214.167,44.3333 122.833,44.6667 31.5,45C 24.0739,46.4516 18.9073,50.6183 16,57.5C 15.5,149.166 15.3333,240.833 15.5,332.5C 39.8356,332.333 64.1689,332.5 88.5,333C 92.2771,335.911 93.4437,339.744 92,344.5C 90.786,346.049 89.286,347.215 87.5,348C 63.5023,348.5 39.5023,348.667 15.5,348.5C 15.3334,361.837 15.5001,375.171 16,388.5C 18.9073,395.382 24.0739,399.548 31.5,401C 152.167,401.333 272.833,401.667 393.5,402C 396.366,403.393 397.699,405.726 397.5,409C 397.666,413.348 395.666,416.015 391.5,417C 369.503,417.5 347.503,417.667 325.5,417.5C 329.35,433.567 333.517,449.567 338,465.5C 348.188,466.037 358.355,466.87 368.5,468C 372.696,472.634 372.363,476.968 367.5,481C 330.225,482.158 292.892,482.658 255.5,482.5C 218.108,482.658 180.775,482.158 143.5,481C 138.637,476.968 138.304,472.634 142.5,468C 152.645,466.87 162.812,466.037 173,465.5C 177.483,449.567 181.65,433.567 185.5,417.5C 133.832,417.667 82.1656,417.5 30.5,417C 14.6137,415.079 4.28035,406.579 -0.5,391.5 Z M 202.5,417.5 C 237.84,417.167 273.173,417.5 308.5,418.5C 312.678,434.211 317.011,449.878 321.5,465.5C 277.5,466.833 233.5,466.833 189.5,465.5C 194.148,449.575 198.481,433.575 202.5,417.5 Z"/></g>
<g><path style="opacity:0.938" fill="#f5f5f5" d="M 511.5,54.5 C 511.5,166.833 511.5,279.167 511.5,391.5C 507.682,404.15 499.349,412.317 486.5,416C 463.537,417.603 440.537,417.936 417.5,417C 409.916,412.37 409.582,407.37 416.5,402C 437.5,401.667 458.5,401.333 479.5,401C 486.926,399.548 492.093,395.382 495,388.5C 495.5,375.171 495.667,361.837 495.5,348.5C 367.833,348.667 240.166,348.5 112.5,348C 107.52,345.149 106.187,340.982 108.5,335.5C 109.5,334.667 110.5,333.833 111.5,333C 239.5,332.5 367.5,332.333 495.5,332.5C 495.667,240.833 495.5,149.166 495,57.5C 492.051,50.606 486.885,46.4393 479.5,45C 429.167,44.6667 378.833,44.3333 328.5,44C 323.913,41.2368 322.746,37.4035 325,32.5C 326.319,30.5125 328.152,29.3459 330.5,29C 380.5,28.3333 430.5,28.3333 480.5,29C 496.019,31.3987 506.352,39.8987 511.5,54.5 Z"/></g>
<g><path style="opacity:0.935" fill="#f5f5f5" d="M 250.5,63.5 C 270.122,63.1192 280.455,72.7859 281.5,92.5C 297.344,100.922 313.344,109.089 329.5,117C 330.5,117.667 331.5,117.667 332.5,117C 343.5,109.667 354.5,109.667 365.5,117C 372.85,124.392 375.35,133.225 373,143.5C 370.245,151.756 364.745,157.089 356.5,159.5C 356.333,179.503 356.5,199.503 357,219.5C 373.476,227.926 377.809,240.593 370,257.5C 358.343,270.514 345.509,271.847 331.5,261.5C 314.989,270.255 298.323,278.755 281.5,287C 280.195,308.64 268.861,317.973 247.5,315C 235.228,309.807 229.228,300.473 229.5,287C 212.677,278.755 196.011,270.255 179.5,261.5C 165.491,271.847 152.657,270.514 141,257.5C 133.191,240.593 137.524,227.926 154,219.5C 154.5,199.503 154.667,179.503 154.5,159.5C 140.459,154.432 134.959,144.432 138,129.5C 143.225,115.298 153.392,109.465 168.5,112C 172.547,113.44 176.38,115.274 180,117.5C 196.718,109.558 213.218,101.225 229.5,92.5C 229.966,77.8383 236.966,68.1716 250.5,63.5 Z M 253.5,79.5 C 262.405,80.3167 265.572,84.9834 263,93.5C 258,98.8333 253,98.8333 248,93.5C 245.676,87.1534 247.51,82.4867 253.5,79.5 Z M 237.5,106.5 C 249.334,115.8 261.168,115.8 273,106.5C 289.912,115.039 306.745,123.706 323.5,132.5C 324.647,134.765 324.814,137.098 324,139.5C 307.088,148.039 290.255,156.706 273.5,165.5C 265.715,159.377 257.048,157.543 247.5,160C 244.006,161.579 240.673,163.413 237.5,165.5C 220.989,156.745 204.323,148.245 187.5,140C 186.223,137.534 186.223,135.034 187.5,132.5C 204.228,123.804 220.895,115.137 237.5,106.5 Z M 158.5,127.5 C 169.039,126.915 172.539,131.581 169,141.5C 163.386,146.648 158.386,145.981 154,139.5C 152.474,134.239 153.974,130.239 158.5,127.5 Z M 345.5,127.5 C 356.039,126.915 359.539,131.581 356,141.5C 350.386,146.648 345.386,145.981 341,139.5C 339.474,134.239 340.974,130.239 345.5,127.5 Z M 178.5,154.5 C 195.559,162.529 212.559,170.862 229.5,179.5C 229.545,192.616 235.379,201.949 247,207.5C 247.667,227.5 247.667,247.5 247,267.5C 243.69,268.992 240.69,270.992 238,273.5C 221.402,264.45 204.568,255.784 187.5,247.5C 188.049,234.921 182.716,225.921 171.5,220.5C 170.167,200.167 170.167,179.833 171.5,159.5C 174.154,158.164 176.487,156.497 178.5,154.5 Z M 329.5,154.5 C 333.048,155.607 336.381,157.274 339.5,159.5C 340.833,179.833 340.833,200.167 339.5,220.5C 328.284,225.921 322.951,234.921 323.5,247.5C 306.432,255.784 289.598,264.45 273,273.5C 270.31,270.992 267.31,268.992 264,267.5C 263.333,247.5 263.333,227.5 264,207.5C 275.621,201.949 281.455,192.616 281.5,179.5C 297.876,171.647 313.876,163.314 329.5,154.5 Z M 254.5,174.5 C 260.202,175.183 263.535,178.349 264.5,184C 262.501,191.666 257.834,194 250.5,191C 244.531,183.762 245.865,178.262 254.5,174.5 Z M 159.5,234.5 C 168.015,234.844 171.515,239.177 170,247.5C 164.667,254.167 159.333,254.167 154,247.5C 153.333,244.833 153.333,242.167 154,239.5C 155.73,237.598 157.563,235.931 159.5,234.5 Z M 346.5,234.5 C 355.015,234.844 358.515,239.177 357,247.5C 351.667,254.167 346.333,254.167 341,247.5C 340.333,244.833 340.333,242.167 341,239.5C 342.73,237.598 344.563,235.931 346.5,234.5 Z M 252.5,282.5 C 261.874,282.357 265.374,286.69 263,295.5C 255.447,302.434 249.947,300.934 246.5,291C 247.174,287.17 249.174,284.336 252.5,282.5 Z"/></g>
</svg>
