<?xml version="1.0" standalone="no"?>
<!DOCTYPE svg PUBLIC "-//W3C//DTD SVG 20010904//EN"
 "http://www.w3.org/TR/2001/REC-SVG-20010904/DTD/svg10.dtd">
<svg version="1.0" xmlns="http://www.w3.org/2000/svg"
 width="50.000000pt" height="50.000000pt" viewBox="0 0 50.000000 50.000000"
 preserveAspectRatio="xMidYMid meet">

<g transform="translate(0.000000,50.000000) scale(0.100000,-0.100000)"
fill="#000000" stroke="none">
<path d="M250 390 c0 -5 19 -10 43 -10 23 0 49 -5 57 -10 11 -7 7 -10 -19 -10
-30 0 -33 -2 -27 -24 5 -22 1 -26 -40 -40 -26 -9 -62 -27 -80 -41 -19 -15 -39
-23 -44 -20 -16 10 -11 19 21 37 43 25 28 38 -47 38 -51 0 -66 -4 -71 -16 -9
-25 11 -49 41 -49 30 0 49 -24 40 -49 -4 -10 -18 -16 -36 -16 -41 0 -88 -48
-88 -90 0 -22 9 -41 29 -61 40 -39 82 -39 122 0 36 37 38 79 4 119 l-24 29 37
36 c35 34 112 76 140 77 23 0 12 -31 -22 -64 -89 -83 -36 -221 84 -221 61 0
100 27 120 83 28 80 -21 157 -107 169 -36 5 -40 9 -50 43 -9 37 -9 38 19 44
32 6 37 30 9 46 -25 13 -111 13 -111 0z m-138 -116 c-33 -14 -52 -12 -52 7 0
5 19 9 43 8 l42 -1 -33 -14z m308 -49 c32 -17 60 -61 60 -95 0 -53 -57 -110
-110 -110 -34 0 -78 28 -95 60 -19 37 -19 63 0 100 16 30 51 56 58 43 2 -5 10
-29 17 -55 7 -27 17 -48 21 -48 12 0 11 9 -6 66 -8 27 -15 50 -15 52 0 8 46 0
70 -13z m-324 -81 c-15 -39 -18 -64 -7 -64 6 0 11 4 11 9 0 5 5 22 11 38 l11
28 19 -24 c25 -30 24 -59 -3 -88 -27 -29 -65 -29 -95 -1 -29 27 -29 65 -1 95
25 27 64 32 54 7z"/>
</g>
</svg>
