<?xml version="1.0" standalone="no"?>
<!DOCTYPE svg PUBLIC "-//W3C//DTD SVG 20010904//EN"
 "http://www.w3.org/TR/2001/REC-SVG-20010904/DTD/svg10.dtd">
<svg version="1.0" xmlns="http://www.w3.org/2000/svg"
 width="50.000000pt" height="50.000000pt" viewBox="0 0 50.000000 50.000000"
 preserveAspectRatio="xMidYMid meet">

<g transform="translate(0.000000,50.000000) scale(0.100000,-0.100000)"
fill="#f5f5f5" stroke="none">
<path d="M220 485 c-8 -9 -36 -15 -83 -17 l-72 -3 0 -220 0 -220 185 0 185 0
0 220 0 220 -72 3 c-47 2 -75 8 -83 17 -7 8 -20 15 -30 15 -10 0 -23 -7 -30
-15z m46 -20 c4 -8 15 -15 25 -15 10 0 19 -4 19 -10 0 -6 -27 -10 -60 -10 -33
0 -60 4 -60 10 0 6 9 10 19 10 10 0 21 7 25 15 3 8 10 15 16 15 6 0 13 -7 16
-15z m-96 -35 c0 -18 7 -20 80 -20 73 0 80 2 80 20 0 17 7 20 45 20 l45 0 0
-205 0 -205 -170 0 -170 0 0 205 0 205 45 0 c38 0 45 -3 45 -20z"/>
<path d="M310 365 c-9 -10 -9 -15 -1 -15 6 0 11 -7 11 -15 0 -8 5 -15 10 -15
6 0 10 7 10 15 0 8 5 15 11 15 8 0 8 5 -1 15 -7 8 -16 15 -20 15 -4 0 -13 -7
-20 -15z"/>
<path d="M143 290 c0 -22 5 -27 27 -27 22 0 27 5 27 27 0 22 -5 27 -27 27 -22
0 -27 -5 -27 -27z"/>
<path d="M314 299 c-10 -17 13 -36 27 -22 12 12 4 33 -11 33 -5 0 -12 -5 -16
-11z"/>
<path d="M242 244 c-29 -19 -52 -39 -52 -45 0 -11 44 13 88 47 46 37 19 36
-36 -2z"/>
<path d="M323 190 c0 -22 5 -27 27 -27 22 0 27 5 27 27 0 22 -5 27 -27 27 -22
0 -27 -5 -27 -27z"/>
<path d="M144 189 c-10 -17 13 -36 27 -22 12 12 4 33 -11 33 -5 0 -12 -5 -16
-11z"/>
<path d="M190 151 c0 -12 50 -44 58 -36 4 3 -4 15 -18 25 -27 21 -40 25 -40
11z"/>
<path d="M264 99 c-10 -17 13 -36 27 -22 12 12 4 33 -11 33 -5 0 -12 -5 -16
-11z"/>
</g>
</svg>
